<svg width="1127" height="355" viewBox="0 0 1127 355" fill="none" xmlns="http://www.w3.org/2000/svg">
<path d="M56.0507 144.196L64.8513 137.127C64.8513 137.127 107.441 181.253 104.308 186.251C101.175 191.249 95.5076 193.32 95.5076 193.32C84.808 169.767 73.3506 161.626 56.0507 144.196Z" fill="white"/>
<path d="M45.1632 157.039C63.0418 178.206 84.2388 170.655 84.2388 170.655C84.2388 170.655 76.7384 159.457 71.1529 152.666C67.1786 147.834 61.6146 141.14 61.2172 140.743C60.8198 140.346 69.0577 146.088 73.9348 150.679C80.6911 157.037 88.8745 167.078 88.8745 167.078C88.8745 167.078 94.4385 148.399 80.5369 132.211C66.5456 115.918 39.1078 116.336 34.0474 116.56C33.5731 116.581 33.1953 116.929 33.1556 117.402C32.8042 121.583 31.9424 141.387 45.1632 157.039Z" fill="#598643" stroke="white" stroke-width="3"/>
<path d="M25.4148 195.435L27.9658 188.201C27.9658 188.201 68.6766 193.792 68.667 197.654C68.6573 201.516 66.116 204.888 66.116 204.888C51.3738 197.022 41.7725 197.45 25.4148 195.435Z" fill="white"/>
<path d="M23.7428 206.509C41.7898 210.226 51.3649 197.713 51.3649 197.713C51.3649 197.713 42.9544 194.952 37.2517 193.698C33.1942 192.806 27.5394 191.594 27.1647 191.549C26.79 191.505 33.6533 191.139 38.1477 191.54C44.3737 192.094 52.7617 193.978 52.7617 193.978C52.7617 193.978 49.229 182.04 35.2944 179.289C21.5343 176.573 6.08241 187.446 2.8055 189.906C2.42799 190.189 2.32505 190.684 2.56379 191.091C4.17326 193.836 10.8366 203.851 23.7428 206.509Z" fill="#598643" stroke="white" stroke-width="3"/>
<rect x="56.5" y="180.122" width="330.029" height="173" rx="39.5" fill="#295C3D" stroke="white" stroke-width="3"/>
<rect x="55" y="262.622" width="333.029" height="8" fill="white"/>
<rect x="197" y="239.622" width="50.8517" height="53" rx="7" fill="white"/>
<rect x="207" y="251.622" width="30.9099" height="30" fill="#295C3D"/>
<path d="M160 129H288.5C298.717 129 307 137.283 307 147.5V180H287.592V159.208C287.592 152.857 282.443 147.708 276.092 147.708H174.5C168.149 147.708 163 152.857 163 159.208V180H141.5V147.5C141.5 137.283 149.783 129 160 129Z" fill="#295C3D" stroke="white" stroke-width="3"/>
<mask id="path-10-outside-1_15_51" maskUnits="userSpaceOnUse" x="379" y="56.5" width="736" height="116" fill="black">
<rect fill="white" x="379" y="56.5" width="736" height="116"/>
<path d="M382.938 167.5V59.8636H412.159V143.955H455.676V167.5H382.938ZM520.255 132.182V86.7727H549.267V167.5H521.727V152.153H520.886C519.134 157.304 516.068 161.333 511.689 164.241C507.309 167.115 502.106 168.551 496.079 168.551C490.438 168.551 485.498 167.255 481.258 164.662C477.054 162.069 473.778 158.495 471.43 153.94C469.118 149.385 467.944 144.165 467.909 138.278V86.7727H496.92V132.182C496.955 136.176 497.971 139.312 499.968 141.589C502.001 143.867 504.839 145.006 508.483 145.006C510.9 145.006 512.985 144.498 514.737 143.482C516.524 142.43 517.89 140.959 518.836 139.067C519.817 137.14 520.29 134.845 520.255 132.182ZM593.033 122.091V167.5H564.022V86.7727H591.562V102.119H592.403C594.155 97.0038 597.238 92.9919 601.653 90.0838C606.103 87.1757 611.288 85.7216 617.21 85.7216C622.921 85.7216 627.879 87.0355 632.083 89.6633C636.323 92.2562 639.599 95.83 641.911 100.385C644.259 104.94 645.415 110.143 645.38 115.994V167.5H616.369V122.091C616.404 118.097 615.388 114.961 613.32 112.683C611.288 110.406 608.45 109.267 604.806 109.267C602.424 109.267 600.339 109.793 598.552 110.844C596.8 111.86 595.451 113.331 594.505 115.259C593.559 117.151 593.068 119.428 593.033 122.091ZM698.594 168.972C689.834 168.972 682.336 167.237 676.099 163.768C669.863 160.265 665.08 155.394 661.751 149.158C658.423 142.886 656.759 135.616 656.759 127.347C656.759 119.078 658.423 111.825 661.751 105.588C665.08 99.3163 669.863 94.446 676.099 90.9773C682.336 87.4735 689.834 85.7216 698.594 85.7216C706.512 85.7216 713.362 87.1581 719.143 90.0312C724.96 92.8693 729.462 96.8987 732.651 102.119C735.839 107.305 737.451 113.402 737.486 120.409H710.577C710.191 116.17 708.965 112.946 706.898 110.739C704.866 108.496 702.238 107.375 699.014 107.375C696.491 107.375 694.284 108.111 692.392 109.582C690.5 111.019 689.028 113.209 687.977 116.152C686.926 119.06 686.401 122.722 686.401 127.136C686.401 131.551 686.926 135.23 687.977 138.173C689.028 141.081 690.5 143.271 692.392 144.743C694.284 146.179 696.491 146.898 699.014 146.898C701.152 146.898 703.044 146.407 704.69 145.426C706.337 144.41 707.669 142.938 708.685 141.011C709.736 139.049 710.366 136.667 710.577 133.864H737.486C737.381 140.976 735.751 147.178 732.598 152.469C729.445 157.724 724.977 161.789 719.196 164.662C713.45 167.535 706.582 168.972 698.594 168.972ZM778.467 122.091V167.5H749.456V59.8636H777.416V102.119H778.257C780.079 96.9687 783.109 92.9569 787.349 90.0838C791.589 87.1757 796.687 85.7216 802.643 85.7216C808.354 85.7216 813.312 87.018 817.517 89.6108C821.756 92.2036 825.032 95.7775 827.345 100.332C829.692 104.887 830.849 110.108 830.814 115.994V167.5H801.802V122.091C801.837 118.097 800.839 114.961 798.806 112.683C796.809 110.406 793.954 109.267 790.24 109.267C787.892 109.267 785.825 109.793 784.038 110.844C782.286 111.86 780.92 113.331 779.939 115.259C778.993 117.151 778.502 119.428 778.467 122.091ZM844.715 167.5V59.8636H873.726V100.858H874.147C875.198 98.125 876.739 95.6198 878.772 93.3423C880.804 91.0298 883.327 89.1903 886.34 87.8239C889.353 86.4223 892.857 85.7216 896.851 85.7216C902.177 85.7216 907.24 87.1406 912.04 89.9787C916.875 92.8168 920.8 97.2841 923.813 103.381C926.861 109.477 928.385 117.396 928.385 127.136C928.385 136.456 926.931 144.182 924.023 150.314C921.15 156.446 917.296 161.018 912.461 164.031C907.66 167.045 902.387 168.551 896.641 168.551C892.857 168.551 889.476 167.938 886.498 166.712C883.554 165.45 881.032 163.751 878.929 161.614C876.862 159.441 875.268 156.989 874.147 154.256H873.516V167.5H844.715ZM873.096 127.136C873.096 131.061 873.604 134.459 874.62 137.332C875.671 140.17 877.142 142.378 879.034 143.955C880.962 145.496 883.257 146.267 885.919 146.267C888.582 146.267 890.842 145.514 892.699 144.007C894.591 142.465 896.028 140.276 897.009 137.438C898.025 134.564 898.533 131.131 898.533 127.136C898.533 123.142 898.025 119.726 897.009 116.888C896.028 114.015 894.591 111.825 892.699 110.318C890.842 108.777 888.582 108.006 885.919 108.006C883.257 108.006 880.962 108.777 879.034 110.318C877.142 111.825 875.671 114.015 874.62 116.888C873.604 119.726 873.096 123.142 873.096 127.136ZM979.418 168.972C970.658 168.972 963.16 167.237 956.924 163.768C950.687 160.265 945.904 155.394 942.576 149.158C939.247 142.886 937.583 135.616 937.583 127.347C937.583 119.078 939.247 111.825 942.576 105.588C945.904 99.3163 950.687 94.446 956.924 90.9773C963.16 87.4735 970.658 85.7216 979.418 85.7216C988.177 85.7216 995.676 87.4735 1001.91 90.9773C1008.15 94.446 1012.93 99.3163 1016.26 105.588C1019.59 111.825 1021.25 119.078 1021.25 127.347C1021.25 135.616 1019.59 142.886 1016.26 149.158C1012.93 155.394 1008.15 160.265 1001.91 163.768C995.676 167.237 988.177 168.972 979.418 168.972ZM979.628 147.528C982.081 147.528 984.201 146.705 985.988 145.058C987.775 143.411 989.158 141.064 990.14 138.016C991.121 134.967 991.611 131.341 991.611 127.136C991.611 122.897 991.121 119.27 990.14 116.257C989.158 113.209 987.775 110.861 985.988 109.214C984.201 107.568 982.081 106.744 979.628 106.744C977.035 106.744 974.81 107.568 972.953 109.214C971.096 110.861 969.677 113.209 968.696 116.257C967.715 119.27 967.225 122.897 967.225 127.136C967.225 131.341 967.715 134.967 968.696 138.016C969.677 141.064 971.096 143.411 972.953 145.058C974.81 146.705 977.035 147.528 979.628 147.528ZM1055.3 86.7727L1067.07 111.79L1079.47 86.7727H1108.27L1086.62 127.136L1109.33 167.5H1080.73L1067.07 141.852L1053.83 167.5H1024.81L1047.73 127.136L1026.29 86.7727H1055.3Z"/>
</mask>
<path d="M382.938 167.5V59.8636H412.159V143.955H455.676V167.5H382.938ZM520.255 132.182V86.7727H549.267V167.5H521.727V152.153H520.886C519.134 157.304 516.068 161.333 511.689 164.241C507.309 167.115 502.106 168.551 496.079 168.551C490.438 168.551 485.498 167.255 481.258 164.662C477.054 162.069 473.778 158.495 471.43 153.94C469.118 149.385 467.944 144.165 467.909 138.278V86.7727H496.92V132.182C496.955 136.176 497.971 139.312 499.968 141.589C502.001 143.867 504.839 145.006 508.483 145.006C510.9 145.006 512.985 144.498 514.737 143.482C516.524 142.43 517.89 140.959 518.836 139.067C519.817 137.14 520.29 134.845 520.255 132.182ZM593.033 122.091V167.5H564.022V86.7727H591.562V102.119H592.403C594.155 97.0038 597.238 92.9919 601.653 90.0838C606.103 87.1757 611.288 85.7216 617.21 85.7216C622.921 85.7216 627.879 87.0355 632.083 89.6633C636.323 92.2562 639.599 95.83 641.911 100.385C644.259 104.94 645.415 110.143 645.38 115.994V167.5H616.369V122.091C616.404 118.097 615.388 114.961 613.32 112.683C611.288 110.406 608.45 109.267 604.806 109.267C602.424 109.267 600.339 109.793 598.552 110.844C596.8 111.86 595.451 113.331 594.505 115.259C593.559 117.151 593.068 119.428 593.033 122.091ZM698.594 168.972C689.834 168.972 682.336 167.237 676.099 163.768C669.863 160.265 665.08 155.394 661.751 149.158C658.423 142.886 656.759 135.616 656.759 127.347C656.759 119.078 658.423 111.825 661.751 105.588C665.08 99.3163 669.863 94.446 676.099 90.9773C682.336 87.4735 689.834 85.7216 698.594 85.7216C706.512 85.7216 713.362 87.1581 719.143 90.0312C724.96 92.8693 729.462 96.8987 732.651 102.119C735.839 107.305 737.451 113.402 737.486 120.409H710.577C710.191 116.17 708.965 112.946 706.898 110.739C704.866 108.496 702.238 107.375 699.014 107.375C696.491 107.375 694.284 108.111 692.392 109.582C690.5 111.019 689.028 113.209 687.977 116.152C686.926 119.06 686.401 122.722 686.401 127.136C686.401 131.551 686.926 135.23 687.977 138.173C689.028 141.081 690.5 143.271 692.392 144.743C694.284 146.179 696.491 146.898 699.014 146.898C701.152 146.898 703.044 146.407 704.69 145.426C706.337 144.41 707.669 142.938 708.685 141.011C709.736 139.049 710.366 136.667 710.577 133.864H737.486C737.381 140.976 735.751 147.178 732.598 152.469C729.445 157.724 724.977 161.789 719.196 164.662C713.45 167.535 706.582 168.972 698.594 168.972ZM778.467 122.091V167.5H749.456V59.8636H777.416V102.119H778.257C780.079 96.9687 783.109 92.9569 787.349 90.0838C791.589 87.1757 796.687 85.7216 802.643 85.7216C808.354 85.7216 813.312 87.018 817.517 89.6108C821.756 92.2036 825.032 95.7775 827.345 100.332C829.692 104.887 830.849 110.108 830.814 115.994V167.5H801.802V122.091C801.837 118.097 800.839 114.961 798.806 112.683C796.809 110.406 793.954 109.267 790.24 109.267C787.892 109.267 785.825 109.793 784.038 110.844C782.286 111.86 780.92 113.331 779.939 115.259C778.993 117.151 778.502 119.428 778.467 122.091ZM844.715 167.5V59.8636H873.726V100.858H874.147C875.198 98.125 876.739 95.6198 878.772 93.3423C880.804 91.0298 883.327 89.1903 886.34 87.8239C889.353 86.4223 892.857 85.7216 896.851 85.7216C902.177 85.7216 907.24 87.1406 912.04 89.9787C916.875 92.8168 920.8 97.2841 923.813 103.381C926.861 109.477 928.385 117.396 928.385 127.136C928.385 136.456 926.931 144.182 924.023 150.314C921.15 156.446 917.296 161.018 912.461 164.031C907.66 167.045 902.387 168.551 896.641 168.551C892.857 168.551 889.476 167.938 886.498 166.712C883.554 165.45 881.032 163.751 878.929 161.614C876.862 159.441 875.268 156.989 874.147 154.256H873.516V167.5H844.715ZM873.096 127.136C873.096 131.061 873.604 134.459 874.62 137.332C875.671 140.17 877.142 142.378 879.034 143.955C880.962 145.496 883.257 146.267 885.919 146.267C888.582 146.267 890.842 145.514 892.699 144.007C894.591 142.465 896.028 140.276 897.009 137.438C898.025 134.564 898.533 131.131 898.533 127.136C898.533 123.142 898.025 119.726 897.009 116.888C896.028 114.015 894.591 111.825 892.699 110.318C890.842 108.777 888.582 108.006 885.919 108.006C883.257 108.006 880.962 108.777 879.034 110.318C877.142 111.825 875.671 114.015 874.62 116.888C873.604 119.726 873.096 123.142 873.096 127.136ZM979.418 168.972C970.658 168.972 963.16 167.237 956.924 163.768C950.687 160.265 945.904 155.394 942.576 149.158C939.247 142.886 937.583 135.616 937.583 127.347C937.583 119.078 939.247 111.825 942.576 105.588C945.904 99.3163 950.687 94.446 956.924 90.9773C963.16 87.4735 970.658 85.7216 979.418 85.7216C988.177 85.7216 995.676 87.4735 1001.91 90.9773C1008.15 94.446 1012.93 99.3163 1016.26 105.588C1019.59 111.825 1021.25 119.078 1021.25 127.347C1021.25 135.616 1019.59 142.886 1016.26 149.158C1012.93 155.394 1008.15 160.265 1001.91 163.768C995.676 167.237 988.177 168.972 979.418 168.972ZM979.628 147.528C982.081 147.528 984.201 146.705 985.988 145.058C987.775 143.411 989.158 141.064 990.14 138.016C991.121 134.967 991.611 131.341 991.611 127.136C991.611 122.897 991.121 119.27 990.14 116.257C989.158 113.209 987.775 110.861 985.988 109.214C984.201 107.568 982.081 106.744 979.628 106.744C977.035 106.744 974.81 107.568 972.953 109.214C971.096 110.861 969.677 113.209 968.696 116.257C967.715 119.27 967.225 122.897 967.225 127.136C967.225 131.341 967.715 134.967 968.696 138.016C969.677 141.064 971.096 143.411 972.953 145.058C974.81 146.705 977.035 147.528 979.628 147.528ZM1055.3 86.7727L1067.07 111.79L1079.47 86.7727H1108.27L1086.62 127.136L1109.33 167.5H1080.73L1067.07 141.852L1053.83 167.5H1024.81L1047.73 127.136L1026.29 86.7727H1055.3Z" fill="#295C3D"/>
<path d="M382.938 167.5H379.938V170.5H382.938V167.5ZM382.938 59.8636V56.8636H379.938V59.8636H382.938ZM412.159 59.8636H415.159V56.8636H412.159V59.8636ZM412.159 143.955H409.159V146.955H412.159V143.955ZM455.676 143.955H458.676V140.955H455.676V143.955ZM455.676 167.5V170.5H458.676V167.5H455.676ZM382.938 167.5H385.938V59.8636H382.938H379.938V167.5H382.938ZM382.938 59.8636V62.8636H412.159V59.8636V56.8636H382.938V59.8636ZM412.159 59.8636H409.159V143.955H412.159H415.159V59.8636H412.159ZM412.159 143.955V146.955H455.676V143.955V140.955H412.159V143.955ZM455.676 143.955H452.676V167.5H455.676H458.676V143.955H455.676ZM455.676 167.5V164.5H382.938V167.5V170.5H455.676V167.5ZM520.255 132.182H517.255V132.202L517.256 132.221L520.255 132.182ZM520.255 86.7727V83.7727H517.255V86.7727H520.255ZM549.267 86.7727H552.267V83.7727H549.267V86.7727ZM549.267 167.5V170.5H552.267V167.5H549.267ZM521.727 167.5H518.727V170.5H521.727V167.5ZM521.727 152.153H524.727V149.153H521.727V152.153ZM520.886 152.153V149.153H518.738L518.046 151.187L520.886 152.153ZM511.689 164.241L513.334 166.75L513.341 166.745L513.348 166.741L511.689 164.241ZM481.258 164.662L479.683 167.215L479.693 167.221L481.258 164.662ZM471.43 153.94L468.755 155.298L468.759 155.307L468.763 155.315L471.43 153.94ZM467.909 138.278H464.909V138.287L464.909 138.296L467.909 138.278ZM467.909 86.7727V83.7727H464.909V86.7727H467.909ZM496.92 86.7727H499.92V83.7727H496.92V86.7727ZM496.92 132.182H493.92V132.195L493.92 132.208L496.92 132.182ZM499.968 141.589L497.713 143.567L497.721 143.577L497.73 143.587L499.968 141.589ZM514.737 143.482L516.242 146.077L516.25 146.072L516.258 146.067L514.737 143.482ZM518.836 139.067L516.163 137.706L516.158 137.715L516.153 137.725L518.836 139.067ZM520.255 132.182H523.255V86.7727H520.255H517.255V132.182H520.255ZM520.255 86.7727V89.7727H549.267V86.7727V83.7727H520.255V86.7727ZM549.267 86.7727H546.267V167.5H549.267H552.267V86.7727H549.267ZM549.267 167.5V164.5H521.727V167.5V170.5H549.267V167.5ZM521.727 167.5H524.727V152.153H521.727H518.727V167.5H521.727ZM521.727 152.153V149.153H520.886V152.153V155.153H521.727V152.153ZM520.886 152.153L518.046 151.187C516.499 155.734 513.836 159.214 510.029 161.742L511.689 164.241L513.348 166.741C518.3 163.452 521.769 158.874 523.726 153.119L520.886 152.153ZM511.689 164.241L510.043 161.733C506.223 164.239 501.611 165.551 496.079 165.551V168.551V171.551C502.6 171.551 508.395 169.99 513.334 166.75L511.689 164.241ZM496.079 168.551V165.551C490.914 165.551 486.531 164.37 482.823 162.103L481.258 164.662L479.693 167.221C484.465 170.14 489.962 171.551 496.079 171.551V168.551ZM481.258 164.662L482.833 162.108C479.111 159.813 476.204 156.655 474.097 152.566L471.43 153.94L468.763 155.315C471.351 160.336 474.997 164.325 479.684 167.215L481.258 164.662ZM471.43 153.94L474.105 152.582C472.033 148.502 470.941 143.752 470.909 138.261L467.909 138.278L464.909 138.296C464.946 144.577 466.202 150.269 468.755 155.298L471.43 153.94ZM467.909 138.278H470.909V86.7727H467.909H464.909V138.278H467.909ZM467.909 86.7727V89.7727H496.92V86.7727V83.7727H467.909V86.7727ZM496.92 86.7727H493.92V132.182H496.92H499.92V86.7727H496.92ZM496.92 132.182L493.92 132.208C493.96 136.689 495.108 140.597 497.713 143.567L499.968 141.589L502.224 139.612C500.834 138.027 499.951 135.664 499.92 132.156L496.92 132.182ZM499.968 141.589L497.73 143.587C500.442 146.626 504.165 148.006 508.483 148.006V145.006V142.006C505.513 142.006 503.56 141.108 502.207 139.592L499.968 141.589ZM508.483 145.006V148.006C511.326 148.006 513.951 147.405 516.242 146.077L514.737 143.482L513.232 140.886C512.018 141.59 510.474 142.006 508.483 142.006V145.006ZM514.737 143.482L516.258 146.067C518.555 144.716 520.32 142.808 521.52 140.408L518.836 139.067L516.153 137.725C515.461 139.11 514.493 140.145 513.216 140.896L514.737 143.482ZM518.836 139.067L521.51 140.428C522.757 137.978 523.295 135.181 523.255 132.142L520.255 132.182L517.256 132.221C517.286 134.509 516.878 136.301 516.163 137.706L518.836 139.067ZM593.033 122.091L590.034 122.051L590.033 122.071V122.091H593.033ZM593.033 167.5V170.5H596.033V167.5H593.033ZM564.022 167.5H561.022V170.5H564.022V167.5ZM564.022 86.7727V83.7727H561.022V86.7727H564.022ZM591.562 86.7727H594.562V83.7727H591.562V86.7727ZM591.562 102.119H588.562V105.119H591.562V102.119ZM592.403 102.119V105.119H594.546L595.241 103.091L592.403 102.119ZM601.653 90.0838L600.011 87.5725L600.002 87.5785L601.653 90.0838ZM632.083 89.6633L630.493 92.2073L630.505 92.2151L630.518 92.2227L632.083 89.6633ZM641.911 100.385L639.236 101.743L639.24 101.751L639.245 101.759L641.911 100.385ZM645.38 115.994L642.38 115.976L642.38 115.985V115.994H645.38ZM645.38 167.5V170.5H648.38V167.5H645.38ZM616.369 167.5H613.369V170.5H616.369V167.5ZM616.369 122.091L613.369 122.065L613.369 122.078V122.091H616.369ZM613.32 112.683L611.082 114.681L611.09 114.69L611.099 114.7L613.32 112.683ZM598.552 110.844L600.057 113.439L600.065 113.434L600.073 113.43L598.552 110.844ZM594.505 115.259L597.188 116.6L597.193 116.59L597.198 116.581L594.505 115.259ZM593.033 122.091H590.033V167.5H593.033H596.033V122.091H593.033ZM593.033 167.5V164.5H564.022V167.5V170.5H593.033V167.5ZM564.022 167.5H567.022V86.7727H564.022H561.022V167.5H564.022ZM564.022 86.7727V89.7727H591.562V86.7727V83.7727H564.022V86.7727ZM591.562 86.7727H588.562V102.119H591.562H594.562V86.7727H591.562ZM591.562 102.119V105.119H592.403V102.119V99.1193H591.562V102.119ZM592.403 102.119L595.241 103.091C596.783 98.5888 599.457 95.1229 603.303 92.5891L601.653 90.0838L600.002 87.5785C595.019 90.861 591.526 95.4188 589.565 101.147L592.403 102.119ZM601.653 90.0838L603.294 92.5951C607.201 90.0415 611.802 88.7216 617.21 88.7216V85.7216V82.7216C610.774 82.7216 605.004 84.3098 600.011 87.5726L601.653 90.0838ZM617.21 85.7216V88.7216C622.446 88.7216 626.834 89.9206 630.493 92.2073L632.083 89.6633L633.673 87.1194C628.923 84.1505 623.396 82.7216 617.21 82.7216V85.7216ZM632.083 89.6633L630.518 92.2227C634.27 94.5172 637.168 97.669 639.236 101.743L641.911 100.385L644.586 99.0269C642.03 93.991 638.376 89.9951 633.648 87.104L632.083 89.6633ZM641.911 100.385L639.245 101.759C641.341 105.826 642.413 110.54 642.38 115.976L645.38 115.994L648.38 116.012C648.417 109.746 647.177 104.054 644.578 99.0106L641.911 100.385ZM645.38 115.994H642.38V167.5H645.38H648.38V115.994H645.38ZM645.38 167.5V164.5H616.369V167.5V170.5H645.38V167.5ZM616.369 167.5H619.369V122.091H616.369H613.369V167.5H616.369ZM616.369 122.091L619.368 122.117C619.408 117.601 618.253 113.654 615.542 110.667L613.32 112.683L611.099 114.7C612.522 116.267 613.399 118.593 613.369 122.065L616.369 122.091ZM613.32 112.683L615.559 110.686C612.847 107.647 609.124 106.267 604.806 106.267V109.267V112.267C607.776 112.267 609.729 113.165 611.082 114.681L613.32 112.683ZM604.806 109.267V106.267C601.97 106.267 599.344 106.897 597.031 108.258L598.552 110.844L600.073 113.43C601.334 112.688 602.877 112.267 604.806 112.267V109.267ZM598.552 110.844L597.047 108.249C594.75 109.581 593.003 111.511 591.812 113.936L594.505 115.259L597.198 116.581C597.899 115.152 598.85 114.139 600.057 113.439L598.552 110.844ZM594.505 115.259L591.822 113.917C590.628 116.304 590.073 119.05 590.034 122.051L593.033 122.091L596.033 122.13C596.064 119.806 596.49 117.997 597.188 116.6L594.505 115.259ZM676.099 163.768L674.63 166.384L674.641 166.39L676.099 163.768ZM661.751 149.158L659.101 150.564L659.105 150.57L661.751 149.158ZM661.751 105.588L664.398 107.001L664.401 106.994L661.751 105.588ZM676.099 90.9773L677.558 93.5991L677.569 93.5928L676.099 90.9773ZM719.143 90.0312L717.808 92.7178L717.818 92.7226L717.828 92.7274L719.143 90.0312ZM732.651 102.119L730.09 103.683L730.095 103.691L732.651 102.119ZM737.486 120.409V123.409H740.501L740.486 120.394L737.486 120.409ZM710.577 120.409L707.589 120.681L707.837 123.409H710.577V120.409ZM706.898 110.739L704.675 112.753L704.691 112.771L704.708 112.789L706.898 110.739ZM692.392 109.582L694.206 111.972L694.22 111.961L694.234 111.95L692.392 109.582ZM687.977 116.152L690.799 117.172L690.802 117.161L687.977 116.152ZM687.977 138.173L685.152 139.182L685.156 139.193L687.977 138.173ZM692.392 144.743L690.55 147.111L690.564 147.122L690.578 147.132L692.392 144.743ZM704.69 145.426L706.226 148.003L706.246 147.991L706.266 147.979L704.69 145.426ZM708.685 141.011L706.04 139.595L706.036 139.603L706.031 139.612L708.685 141.011ZM710.577 133.864V130.864H707.793L707.585 133.639L710.577 133.864ZM737.486 133.864L740.485 133.908L740.53 130.864H737.486V133.864ZM732.598 152.469L735.171 154.012L735.175 154.005L732.598 152.469ZM719.196 164.662L717.861 161.975L717.854 161.979L719.196 164.662ZM698.594 168.972V165.972C690.23 165.972 683.258 164.317 677.558 161.147L676.099 163.768L674.641 166.39C681.415 170.157 689.439 171.972 698.594 171.972V168.972ZM676.099 163.768L677.569 161.153C671.825 157.926 667.454 153.47 664.398 147.745L661.751 149.158L659.105 150.57C662.706 157.318 667.9 162.603 674.63 166.384L676.099 163.768ZM661.751 149.158L664.401 147.751C661.338 141.979 659.759 135.206 659.759 127.347H656.759H653.759C653.759 136.025 655.508 143.793 659.101 150.564L661.751 149.158ZM656.759 127.347H659.759C659.759 119.487 661.338 112.734 664.398 107.001L661.751 105.588L659.105 104.176C655.508 110.915 653.759 118.669 653.759 127.347H656.759ZM661.751 105.588L664.401 106.994C667.457 101.237 671.824 96.7877 677.558 93.599L676.099 90.9773L674.641 88.3555C667.901 92.1043 662.703 97.3954 659.101 104.182L661.751 105.588ZM676.099 90.9773L677.569 93.5928C683.266 90.3918 690.234 88.7216 698.594 88.7216V85.7216V82.7216C689.434 82.7216 681.406 84.5551 674.63 88.3618L676.099 90.9773ZM698.594 85.7216V88.7216C706.152 88.7216 712.525 90.0923 717.808 92.7178L719.143 90.0312L720.479 87.3447C714.199 84.224 706.872 82.7216 698.594 82.7216V85.7216ZM719.143 90.0312L717.828 92.7274C723.161 95.3297 727.218 98.9797 730.09 103.683L732.651 102.119L735.211 100.556C731.706 94.8177 726.759 90.4089 720.459 87.3351L719.143 90.0312ZM732.651 102.119L730.095 103.691C732.954 108.341 734.453 113.882 734.486 120.424L737.486 120.409L740.486 120.394C740.448 112.921 738.724 106.269 735.206 100.548L732.651 102.119ZM737.486 120.409V117.409H710.577V120.409V123.409H737.486V120.409ZM710.577 120.409L713.564 120.137C713.143 115.498 711.765 111.547 709.087 108.688L706.898 110.739L704.708 112.789C706.165 114.345 707.24 116.841 707.589 120.681L710.577 120.409ZM706.898 110.739L709.121 108.724C706.479 105.81 703.022 104.375 699.014 104.375V107.375V110.375C701.453 110.375 703.252 111.183 704.675 112.753L706.898 110.739ZM699.014 107.375V104.375C695.862 104.375 692.998 105.311 690.55 107.214L692.392 109.582L694.234 111.95C695.57 110.911 697.121 110.375 699.014 110.375V107.375ZM692.392 109.582L690.578 107.193C688.097 109.077 686.338 111.821 685.152 115.143L687.977 116.152L690.802 117.161C691.718 114.596 692.903 112.961 694.206 111.972L692.392 109.582ZM687.977 116.152L685.156 115.132C683.948 118.475 683.401 122.51 683.401 127.136H686.401H689.401C689.401 122.933 689.905 119.645 690.799 117.172L687.977 116.152ZM686.401 127.136H683.401C683.401 131.765 683.948 135.812 685.152 139.182L687.977 138.173L690.802 137.164C689.904 134.648 689.401 131.338 689.401 127.136H686.401ZM687.977 138.173L685.156 139.193C686.345 142.482 688.098 145.204 690.55 147.111L692.392 144.743L694.234 142.375C692.902 141.339 691.712 139.681 690.799 137.154L687.977 138.173ZM692.392 144.743L690.578 147.132C693.025 148.99 695.88 149.898 699.014 149.898V146.898V143.898C697.103 143.898 695.543 143.369 694.206 142.354L692.392 144.743ZM699.014 146.898V149.898C701.628 149.898 704.063 149.292 706.226 148.003L704.69 145.426L703.155 142.849C702.024 143.522 700.675 143.898 699.014 143.898V146.898ZM704.69 145.426L706.266 147.979C708.424 146.648 710.104 144.751 711.338 142.411L708.685 141.011L706.031 139.612C705.233 141.126 704.25 142.172 703.115 142.873L704.69 145.426ZM708.685 141.011L711.329 142.428C712.623 140.014 713.335 137.202 713.568 134.088L710.577 133.864L707.585 133.639C707.398 136.131 706.849 138.085 706.04 139.595L708.685 141.011ZM710.577 133.864V136.864H737.486V133.864V130.864H710.577V133.864ZM737.486 133.864L734.486 133.819C734.388 140.489 732.866 146.16 730.021 150.933L732.598 152.469L735.175 154.005C738.637 148.196 740.374 141.464 740.485 133.908L737.486 133.864ZM732.598 152.469L730.026 150.925C727.183 155.663 723.158 159.343 717.861 161.975L719.196 164.662L720.531 167.348C726.797 164.235 731.706 159.786 735.17 154.012L732.598 152.469ZM719.196 164.662L717.854 161.979C712.614 164.599 706.228 165.972 698.594 165.972V168.972V171.972C706.937 171.972 714.286 170.471 720.538 167.345L719.196 164.662ZM778.467 122.091L775.467 122.051L775.467 122.071V122.091H778.467ZM778.467 167.5V170.5H781.467V167.5H778.467ZM749.456 167.5H746.456V170.5H749.456V167.5ZM749.456 59.8636V56.8636H746.456V59.8636H749.456ZM777.416 59.8636H780.416V56.8636H777.416V59.8636ZM777.416 102.119H774.416V105.119H777.416V102.119ZM778.257 102.119V105.119H780.378L781.085 103.12L778.257 102.119ZM787.349 90.0838L789.032 92.5673L789.039 92.5625L789.046 92.5577L787.349 90.0838ZM817.517 89.6108L815.942 92.1643L815.951 92.1701L817.517 89.6108ZM827.345 100.332L824.67 101.69L824.674 101.699L824.678 101.707L827.345 100.332ZM830.814 115.994L827.814 115.976L827.814 115.985V115.994H830.814ZM830.814 167.5V170.5H833.814V167.5H830.814ZM801.802 167.5H798.802V170.5H801.802V167.5ZM801.802 122.091L798.802 122.065L798.802 122.078V122.091H801.802ZM798.806 112.683L796.551 114.661L796.559 114.671L796.568 114.681L798.806 112.683ZM784.038 110.844L785.543 113.439L785.551 113.434L785.559 113.43L784.038 110.844ZM779.939 115.259L777.265 113.897L777.26 113.907L777.255 113.917L779.939 115.259ZM778.467 122.091H775.467V167.5H778.467H781.467V122.091H778.467ZM778.467 167.5V164.5H749.456V167.5V170.5H778.467V167.5ZM749.456 167.5H752.456V59.8636H749.456H746.456V167.5H749.456ZM749.456 59.8636V62.8636H777.416V59.8636V56.8636H749.456V59.8636ZM777.416 59.8636H774.416V102.119H777.416H780.416V59.8636H777.416ZM777.416 102.119V105.119H778.257V102.119V99.1193H777.416V102.119ZM778.257 102.119L781.085 103.12C782.708 98.5303 785.359 95.0563 789.032 92.5673L787.349 90.0838L785.666 87.6004C780.86 90.8575 777.449 95.4072 775.428 101.119L778.257 102.119ZM787.349 90.0838L789.046 92.5577C792.71 90.0442 797.194 88.7216 802.643 88.7216V85.7216V82.7216C796.18 82.7216 790.467 84.3071 785.652 87.6099L787.349 90.0838ZM802.643 85.7216V88.7216C807.887 88.7216 812.281 89.9066 815.942 92.1643L817.517 89.6108L819.091 87.0573C814.343 84.1294 808.822 82.7216 802.643 82.7216V85.7216ZM817.517 89.6108L815.951 92.1701C819.703 94.4646 822.601 97.6164 824.67 101.69L827.345 100.332L830.02 98.9743C827.463 93.9385 823.809 89.9426 819.082 87.0515L817.517 89.6108ZM827.345 100.332L824.678 101.707C826.773 105.771 827.846 110.502 827.814 115.976L830.814 115.994L833.814 116.012C833.851 109.714 832.612 104.003 830.011 98.958L827.345 100.332ZM830.814 115.994H827.814V167.5H830.814H833.814V115.994H830.814ZM830.814 167.5V164.5H801.802V167.5V170.5H830.814V167.5ZM801.802 167.5H804.802V122.091H801.802H798.802V167.5H801.802ZM801.802 122.091L804.802 122.117C804.842 117.613 803.711 113.674 801.045 110.686L798.806 112.683L796.568 114.681C797.966 116.248 798.833 118.58 798.802 122.065L801.802 122.091ZM798.806 112.683L801.062 110.705C798.369 107.634 794.606 106.267 790.24 106.267V109.267V112.267C793.302 112.267 795.25 113.177 796.551 114.661L798.806 112.683ZM790.24 109.267V106.267C787.43 106.267 784.823 106.901 782.517 108.258L784.038 110.844L785.559 113.43C786.826 112.684 788.355 112.267 790.24 112.267V109.267ZM784.038 110.844L782.533 108.249C780.246 109.575 778.49 111.492 777.265 113.897L779.939 115.259L782.612 116.62C783.349 115.171 784.326 114.145 785.543 113.439L784.038 110.844ZM779.939 115.259L777.255 113.917C776.062 116.304 775.507 119.05 775.467 122.051L778.467 122.091L781.467 122.13C781.497 119.806 781.924 117.997 782.622 116.6L779.939 115.259ZM844.715 167.5H841.715V170.5H844.715V167.5ZM844.715 59.8636V56.8636H841.715V59.8636H844.715ZM873.726 59.8636H876.726V56.8636H873.726V59.8636ZM873.726 100.858H870.726V103.858H873.726V100.858ZM874.147 100.858V103.858H876.207L876.947 101.935L874.147 100.858ZM878.772 93.3423L881.01 95.3397L881.018 95.3312L881.025 95.3227L878.772 93.3423ZM886.34 87.8239L887.579 90.556L887.592 90.5501L887.605 90.544L886.34 87.8239ZM912.04 89.9787L910.513 92.5611L910.522 92.5659L912.04 89.9787ZM923.813 103.381L921.123 104.71L921.13 104.722L923.813 103.381ZM924.023 150.314L921.312 149.028L921.307 149.041L924.023 150.314ZM912.461 164.031L910.874 161.485L910.866 161.49L912.461 164.031ZM886.498 166.712L885.316 169.469L885.335 169.478L885.355 169.486L886.498 166.712ZM878.929 161.614L876.756 163.682L876.773 163.7L876.791 163.717L878.929 161.614ZM874.147 154.256L876.922 153.117L876.159 151.256H874.147V154.256ZM873.516 154.256V151.256H870.516V154.256H873.516ZM873.516 167.5V170.5H876.516V167.5H873.516ZM874.62 137.332L871.791 138.333L871.799 138.354L871.806 138.374L874.62 137.332ZM879.034 143.955L877.114 146.259L877.137 146.278L877.16 146.297L879.034 143.955ZM892.699 144.007L894.589 146.337L894.594 146.333L892.699 144.007ZM897.009 137.438L894.181 136.437L894.177 136.447L894.174 136.457L897.009 137.438ZM897.009 116.888L894.17 117.857L894.177 117.878L894.184 117.899L897.009 116.888ZM892.699 110.318L890.783 112.626L890.806 112.646L890.83 112.665L892.699 110.318ZM879.034 110.318L880.903 112.665L880.909 112.661L879.034 110.318ZM874.62 116.888L871.802 115.857L871.799 115.867L871.795 115.877L874.62 116.888ZM844.715 167.5H847.715V59.8636H844.715H841.715V167.5H844.715ZM844.715 59.8636V62.8636H873.726V59.8636V56.8636H844.715V59.8636ZM873.726 59.8636H870.726V100.858H873.726H876.726V59.8636H873.726ZM873.726 100.858V103.858H874.147V100.858V97.858H873.726V100.858ZM874.147 100.858L876.947 101.935C877.862 99.5544 879.209 97.3584 881.01 95.3397L878.772 93.3423L876.533 91.345C874.27 93.8812 872.533 96.6956 871.347 99.781L874.147 100.858ZM878.772 93.3423L881.025 95.3227C882.756 93.3533 884.924 91.7601 887.579 90.556L886.34 87.8239L885.101 85.0917C881.729 86.6206 878.852 88.7063 876.518 91.362L878.772 93.3423ZM886.34 87.8239L887.605 90.544C890.15 89.3603 893.207 88.7216 896.851 88.7216V85.7216V82.7216C892.507 82.7216 888.556 83.4844 885.075 85.1037L886.34 87.8239ZM896.851 85.7216V88.7216C901.614 88.7216 906.153 89.983 910.513 92.5611L912.04 89.9787L913.567 87.3963C908.327 84.2983 902.74 82.7216 896.851 82.7216V85.7216ZM912.04 89.9787L910.522 92.5659C914.754 95.05 918.314 99.0251 921.123 104.71L923.813 103.381L926.502 102.051C923.286 95.5431 918.997 90.5835 913.559 87.3914L912.04 89.9787ZM923.813 103.381L921.13 104.722C923.9 110.263 925.385 117.675 925.385 127.136H928.385H931.385C931.385 117.116 929.823 108.692 926.496 102.039L923.813 103.381ZM928.385 127.136H925.385C925.385 136.168 923.973 143.419 921.313 149.028L924.023 150.314L926.734 151.6C929.89 144.945 931.385 136.745 931.385 127.136H928.385ZM924.023 150.314L921.307 149.041C918.632 154.748 915.131 158.832 910.874 161.485L912.461 164.031L914.047 166.577C919.46 163.204 923.668 158.143 926.74 151.587L924.023 150.314ZM912.461 164.031L910.866 161.49C906.55 164.199 901.831 165.551 896.641 165.551V168.551V171.551C902.943 171.551 908.771 169.89 914.056 166.572L912.461 164.031ZM896.641 168.551V165.551C893.181 165.551 890.198 164.991 887.64 163.938L886.498 166.712L885.355 169.486C888.753 170.885 892.532 171.551 896.641 171.551V168.551ZM886.498 166.712L887.679 163.954C885.07 162.836 882.879 161.351 881.068 159.51L878.929 161.614L876.791 163.717C879.185 166.151 882.039 168.065 885.316 169.469L886.498 166.712ZM878.929 161.614L881.103 159.546C879.288 157.639 877.9 155.5 876.922 153.117L874.147 154.256L871.371 155.394C872.636 158.477 874.436 161.244 876.756 163.682L878.929 161.614ZM874.147 154.256V151.256H873.516V154.256V157.256H874.147V154.256ZM873.516 154.256H870.516V167.5H873.516H876.516V154.256H873.516ZM873.516 167.5V164.5H844.715V167.5V170.5H873.516V167.5ZM873.096 127.136H870.096C870.096 131.308 870.634 135.061 871.791 138.333L874.62 137.332L877.448 136.332C876.573 133.858 876.096 130.813 876.096 127.136H873.096ZM874.62 137.332L871.806 138.374C872.998 141.592 874.736 144.278 877.114 146.259L879.034 143.955L880.955 141.65C879.548 140.478 878.343 138.749 877.433 136.29L874.62 137.332ZM879.034 143.955L877.16 146.297C879.663 148.299 882.633 149.267 885.919 149.267V146.267V143.267C883.88 143.267 882.26 142.693 880.909 141.612L879.034 143.955ZM885.919 146.267V149.267C889.188 149.267 892.137 148.327 894.589 146.337L892.699 144.007L890.809 141.677C889.548 142.701 887.977 143.267 885.919 143.267V146.267ZM892.699 144.007L894.594 146.333C897.009 144.366 898.723 141.662 899.844 138.418L897.009 137.438L894.174 136.457C893.333 138.89 892.174 140.565 890.804 141.681L892.699 144.007ZM897.009 137.438L899.837 138.438C900.996 135.161 901.533 131.372 901.533 127.136H898.533H895.533C895.533 130.89 895.054 133.968 894.181 136.437L897.009 137.438ZM898.533 127.136H901.533C901.533 122.903 900.996 119.125 899.833 115.877L897.009 116.888L894.184 117.899C895.053 120.326 895.533 123.381 895.533 127.136H898.533ZM897.009 116.888L899.848 115.918C898.729 112.641 897.01 109.916 894.568 107.971L892.699 110.318L890.83 112.665C892.172 113.734 893.327 115.389 894.17 117.857L897.009 116.888ZM892.699 110.318L894.615 108.01C892.163 105.974 889.205 105.006 885.919 105.006V108.006V111.006C887.96 111.006 889.521 111.579 890.783 112.626L892.699 110.318ZM885.919 108.006V105.006C882.633 105.006 879.663 105.974 877.16 107.976L879.034 110.318L880.909 112.661C882.26 111.579 883.88 111.006 885.919 111.006V108.006ZM879.034 110.318L877.166 107.971C874.742 109.901 872.993 112.602 871.802 115.857L874.62 116.888L877.437 117.919C878.348 115.427 879.543 113.748 880.903 112.665L879.034 110.318ZM874.62 116.888L871.795 115.877C870.632 119.125 870.096 122.903 870.096 127.136H873.096H876.096C876.096 123.381 876.575 120.326 877.444 117.899L874.62 116.888ZM956.924 163.768L955.454 166.384L955.465 166.39L956.924 163.768ZM942.576 149.158L939.926 150.564L939.929 150.57L942.576 149.158ZM942.576 105.588L945.222 107.001L945.226 106.994L942.576 105.588ZM956.924 90.9773L958.382 93.5991L958.393 93.5928L956.924 90.9773ZM1001.91 90.9773L1000.44 93.5928L1000.45 93.599L1001.91 90.9773ZM1016.26 105.588L1013.61 106.994L1013.61 107.001L1016.26 105.588ZM1016.26 149.158L1018.91 150.57L1018.91 150.564L1016.26 149.158ZM1001.91 163.768L1003.37 166.39L1003.38 166.384L1001.91 163.768ZM985.988 145.058L988.021 147.264L988.021 147.264L985.988 145.058ZM990.14 138.016L992.995 138.935L992.995 138.935L990.14 138.016ZM990.14 116.257L987.284 117.176L987.287 117.186L990.14 116.257ZM985.988 109.214L988.021 107.008L988.021 107.008L985.988 109.214ZM968.696 116.257L971.549 117.186L971.552 117.176L968.696 116.257ZM968.696 138.016L971.552 137.097L971.552 137.097L968.696 138.016ZM979.418 168.972V165.972C971.054 165.972 964.082 164.317 958.382 161.147L956.924 163.768L955.465 166.39C962.239 170.157 970.263 171.972 979.418 171.972V168.972ZM956.924 163.768L958.393 161.153C952.649 157.926 948.278 153.47 945.222 147.745L942.576 149.158L939.929 150.57C943.531 157.318 948.725 162.603 955.454 166.384L956.924 163.768ZM942.576 149.158L945.226 147.751C942.162 141.979 940.583 135.206 940.583 127.347H937.583H934.583C934.583 136.025 936.332 143.793 939.926 150.564L942.576 149.158ZM937.583 127.347H940.583C940.583 119.487 942.162 112.734 945.222 107.001L942.576 105.588L939.929 104.176C936.332 110.915 934.583 118.669 934.583 127.347H937.583ZM942.576 105.588L945.226 106.994C948.281 101.237 952.649 96.7877 958.382 93.599L956.924 90.9773L955.465 88.3555C948.725 92.1043 943.527 97.3954 939.926 104.182L942.576 105.588ZM956.924 90.9773L958.393 93.5928C964.091 90.3918 971.059 88.7216 979.418 88.7216V85.7216V82.7216C970.258 82.7216 962.23 84.5551 955.454 88.3618L956.924 90.9773ZM979.418 85.7216V88.7216C987.777 88.7216 994.745 90.3918 1000.44 93.5928L1001.91 90.9773L1003.38 88.3618C996.606 84.5551 988.577 82.7216 979.418 82.7216V85.7216ZM1001.91 90.9773L1000.45 93.599C1006.19 96.7877 1010.55 101.237 1013.61 106.994L1016.26 105.588L1018.91 104.182C1015.31 97.3954 1010.11 92.1043 1003.37 88.3555L1001.91 90.9773ZM1016.26 105.588L1013.61 107.001C1016.67 112.734 1018.25 119.487 1018.25 127.347H1021.25H1024.25C1024.25 118.669 1022.5 110.915 1018.91 104.176L1016.26 105.588ZM1021.25 127.347H1018.25C1018.25 135.206 1016.67 141.979 1013.61 147.751L1016.26 149.158L1018.91 150.564C1022.5 143.793 1024.25 136.025 1024.25 127.347H1021.25ZM1016.26 149.158L1013.61 147.745C1010.56 153.47 1006.19 157.926 1000.44 161.153L1001.91 163.768L1003.38 166.384C1010.11 162.603 1015.31 157.318 1018.91 150.57L1016.26 149.158ZM1001.91 163.768L1000.45 161.147C994.754 164.317 987.782 165.972 979.418 165.972V168.972V171.972C988.573 171.972 996.597 170.157 1003.37 166.39L1001.91 163.768ZM979.628 147.528V150.528C982.826 150.528 985.674 149.427 988.021 147.264L985.988 145.058L983.955 142.852C982.727 143.983 981.335 144.528 979.628 144.528V147.528ZM985.988 145.058L988.021 147.264C990.29 145.173 991.904 142.324 992.995 138.935L990.14 138.016L987.284 137.097C986.413 139.804 985.259 141.65 983.955 142.852L985.988 145.058ZM990.14 138.016L992.995 138.935C994.097 135.513 994.611 131.561 994.611 127.136H991.611H988.611C988.611 131.121 988.145 134.422 987.284 137.097L990.14 138.016ZM991.611 127.136H994.611C994.611 122.681 994.098 118.723 992.992 115.328L990.14 116.257L987.287 117.186C988.144 119.817 988.611 123.113 988.611 127.136H991.611ZM990.14 116.257L992.995 115.338C991.904 111.949 990.29 109.1 988.021 107.008L985.988 109.214L983.955 111.421C985.259 112.622 986.413 114.469 987.284 117.176L990.14 116.257ZM985.988 109.214L988.021 107.008C985.674 104.846 982.826 103.744 979.628 103.744V106.744V109.744C981.335 109.744 982.727 110.29 983.955 111.421L985.988 109.214ZM979.628 106.744V103.744C976.338 103.744 973.395 104.813 970.963 106.97L972.953 109.214L974.944 111.459C976.226 110.322 977.733 109.744 979.628 109.744V106.744ZM972.953 109.214L970.963 106.97C968.603 109.062 966.939 111.924 965.841 115.338L968.696 116.257L971.552 117.176C972.415 114.494 973.589 112.66 974.944 111.459L972.953 109.214ZM968.696 116.257L965.844 115.328C964.738 118.723 964.225 122.681 964.225 127.136H967.225H970.225C970.225 123.113 970.692 119.817 971.549 117.186L968.696 116.257ZM967.225 127.136H964.225C964.225 131.561 964.739 135.513 965.841 138.935L968.696 138.016L971.552 137.097C970.691 134.422 970.225 131.121 970.225 127.136H967.225ZM968.696 138.016L965.841 138.935C966.939 142.349 968.603 145.21 970.963 147.303L972.953 145.058L974.944 142.814C973.589 141.613 972.415 139.779 971.552 137.097L968.696 138.016ZM972.953 145.058L970.963 147.303C973.395 149.46 976.338 150.528 979.628 150.528V147.528V144.528C977.733 144.528 976.226 143.951 974.944 142.814L972.953 145.058ZM1055.3 86.7727L1058.01 85.4953L1057.2 83.7727H1055.3V86.7727ZM1067.07 111.79L1064.36 113.067L1067 118.686L1069.76 113.122L1067.07 111.79ZM1079.47 86.7727V83.7727H1077.61L1076.79 85.4401L1079.47 86.7727ZM1108.27 86.7727L1110.92 88.1909L1113.29 83.7727H1108.27V86.7727ZM1086.62 127.136L1083.98 125.718L1083.2 127.171L1084.01 128.607L1086.62 127.136ZM1109.33 167.5V170.5H1114.45L1111.94 166.029L1109.33 167.5ZM1080.73 167.5L1078.09 168.911L1078.93 170.5H1080.73V167.5ZM1067.07 141.852L1069.72 140.442L1067.03 135.394L1064.4 140.476L1067.07 141.852ZM1053.83 167.5V170.5H1055.65L1056.49 168.876L1053.83 167.5ZM1024.81 167.5L1022.21 166.019L1019.66 170.5H1024.81V167.5ZM1047.73 127.136L1050.34 128.617L1051.15 127.184L1050.38 125.729L1047.73 127.136ZM1026.29 86.7727V83.7727H1021.29L1023.64 88.1802L1026.29 86.7727ZM1055.3 86.7727L1052.58 88.0501L1064.36 113.067L1067.07 111.79L1069.78 110.512L1058.01 85.4953L1055.3 86.7727ZM1067.07 111.79L1069.76 113.122L1082.16 88.1053L1079.47 86.7727L1076.79 85.4401L1064.38 110.457L1067.07 111.79ZM1079.47 86.7727V89.7727H1108.27V86.7727V83.7727H1079.47V86.7727ZM1108.27 86.7727L1105.63 85.3545L1083.98 125.718L1086.62 127.136L1089.26 128.555L1110.92 88.1909L1108.27 86.7727ZM1086.62 127.136L1084.01 128.607L1106.71 168.971L1109.33 167.5L1111.94 166.029L1089.24 125.666L1086.62 127.136ZM1109.33 167.5V164.5H1080.73V167.5V170.5H1109.33V167.5ZM1080.73 167.5L1083.38 166.089L1069.72 140.442L1067.07 141.852L1064.42 143.263L1078.09 168.911L1080.73 167.5ZM1067.07 141.852L1064.4 140.476L1051.16 166.124L1053.83 167.5L1056.49 168.876L1069.74 143.229L1067.07 141.852ZM1053.83 167.5V164.5H1024.81V167.5V170.5H1053.83V167.5ZM1024.81 167.5L1027.42 168.981L1050.34 128.617L1047.73 127.136L1045.12 125.655L1022.21 166.019L1024.81 167.5ZM1047.73 127.136L1050.38 125.729L1028.93 85.3653L1026.29 86.7727L1023.64 88.1802L1045.08 128.544L1047.73 127.136ZM1026.29 86.7727V89.7727H1055.3V86.7727V83.7727H1026.29V86.7727Z" fill="white" mask="url(#path-10-outside-1_15_51)"/>
<mask id="path-12-outside-2_15_51" maskUnits="userSpaceOnUse" x="463" y="184" width="628" height="171" fill="black">
<rect fill="white" x="463" y="184" width="628" height="171"/>
<path d="M534.524 299.04V316H468.604V204H493.244V299.04H534.524ZM624.875 266.24C624.875 267.733 624.608 271.093 624.075 276.32H567.435C567.968 284.427 569.888 290.72 573.195 295.2C576.608 299.68 581.035 301.92 586.475 301.92C588.928 301.92 590.955 301.6 592.555 300.96C594.262 300.32 595.968 299.2 597.675 297.6C599.488 295.893 601.835 293.173 604.715 289.44C605.248 288.587 606.368 288.16 608.075 288.16C609.888 288.16 612.075 288.8 614.635 290.08C617.302 291.253 620.128 292.96 623.115 295.2C616.182 310.133 603.968 317.6 586.475 317.6C573.035 317.6 562.475 313.547 554.795 305.44C547.115 297.227 543.275 286.027 543.275 271.84C543.275 262.56 544.982 254.507 548.395 247.68C551.915 240.853 556.875 235.627 563.275 232C569.782 228.267 577.462 226.4 586.315 226.4C598.582 226.4 608.075 229.867 614.795 236.8C621.515 243.733 624.875 253.547 624.875 266.24ZM600.875 262.88C600.875 248.587 595.862 241.44 585.835 241.44C580.715 241.44 576.608 243.253 573.515 246.88C570.422 250.507 568.502 255.84 567.755 262.88H600.875ZM679.128 296C691.821 296 701.581 298.187 708.408 302.56C715.234 306.827 718.648 312.96 718.648 320.96C718.648 329.6 714.808 336.427 707.128 341.44C699.448 346.56 689.048 349.12 675.928 349.12C662.701 349.12 652.461 346.987 645.208 342.72C638.061 338.56 634.488 332.587 634.488 324.8C634.488 314.773 641.634 309.067 655.928 307.68V307.2C651.554 306.347 648.141 304.853 645.688 302.72C643.341 300.48 642.168 297.813 642.168 294.72C642.168 291.84 643.341 289.333 645.688 287.2C648.034 284.96 651.181 283.307 655.128 282.24C649.901 279.573 645.741 276.107 642.648 271.84C639.554 267.573 638.008 262.88 638.008 257.76C638.008 247.733 641.421 240 648.248 234.56C655.181 229.12 664.888 226.4 677.368 226.4C683.661 226.4 689.421 227.467 694.648 229.6C697.101 226.293 699.981 223.627 703.288 221.6C706.701 219.573 709.901 218.56 712.888 218.56C716.728 218.56 719.394 219.947 720.888 222.72C722.488 225.387 723.288 230.08 723.288 236.8C716.034 236.8 710.754 237.653 707.448 239.36C711.074 244.16 712.888 249.653 712.888 255.84C712.888 265.653 709.528 273.227 702.808 278.56C696.194 283.893 686.701 286.56 674.328 286.56C669.314 286.56 665.901 286.933 664.088 287.68C662.274 288.32 661.368 289.6 661.368 291.52C661.368 292.907 661.794 293.92 662.648 294.56C663.501 295.093 665.101 295.467 667.448 295.68C669.901 295.893 673.794 296 679.128 296ZM675.288 241.44C666.434 241.44 662.008 246.453 662.008 256.48C662.008 261.493 663.074 265.227 665.208 267.68C667.341 270.027 670.701 271.2 675.288 271.2C679.874 271.2 683.234 270.027 685.368 267.68C687.608 265.227 688.728 261.493 688.728 256.48C688.728 251.36 687.608 247.573 685.368 245.12C683.234 242.667 679.874 241.44 675.288 241.44ZM675.928 333.76C682.434 333.76 687.394 332.747 690.808 330.72C694.328 328.693 696.088 325.76 696.088 321.92C696.088 314.453 689.581 310.72 676.568 310.72C664.621 310.72 658.648 314.453 658.648 321.92C658.648 326.08 659.981 329.067 662.648 330.88C665.421 332.8 669.848 333.76 675.928 333.76ZM811.281 266.24C811.281 267.733 811.015 271.093 810.481 276.32H753.841C754.375 284.427 756.295 290.72 759.601 295.2C763.015 299.68 767.441 301.92 772.881 301.92C775.335 301.92 777.361 301.6 778.961 300.96C780.668 300.32 782.375 299.2 784.081 297.6C785.895 295.893 788.241 293.173 791.121 289.44C791.655 288.587 792.775 288.16 794.481 288.16C796.295 288.16 798.481 288.8 801.041 290.08C803.708 291.253 806.535 292.96 809.521 295.2C802.588 310.133 790.375 317.6 772.881 317.6C759.441 317.6 748.881 313.547 741.201 305.44C733.521 297.227 729.681 286.027 729.681 271.84C729.681 262.56 731.388 254.507 734.801 247.68C738.321 240.853 743.281 235.627 749.681 232C756.188 228.267 763.868 226.4 772.721 226.4C784.988 226.4 794.481 229.867 801.201 236.8C807.921 243.733 811.281 253.547 811.281 266.24ZM787.281 262.88C787.281 248.587 782.268 241.44 772.241 241.44C767.121 241.44 763.015 243.253 759.921 246.88C756.828 250.507 754.908 255.84 754.161 262.88H787.281ZM902.494 293.92C902.494 299.253 902.707 303.253 903.134 305.92C903.56 308.587 904.36 311.04 905.534 313.28C899.24 315.627 892.734 316.8 886.014 316.8C883.347 316.8 881.48 315.52 880.414 312.96C879.347 310.4 878.814 305.973 878.814 299.68V257.92C878.814 252.373 877.96 248.533 876.254 246.4C874.654 244.16 871.774 243.04 867.614 243.04C862.067 243.04 855.987 245.76 849.374 251.2V316H825.694V256.8C825.694 249.653 825.534 244.16 825.214 240.32C825 236.48 824.52 233.387 823.774 231.04C831.667 228.587 838.12 227.36 843.134 227.36C845.374 227.36 846.974 228.107 847.934 229.6C848.894 230.987 849.374 233.333 849.374 236.64V238.56C854.814 233.973 859.4 230.827 863.134 229.12C866.974 227.307 870.974 226.4 875.134 226.4C884.307 226.4 891.134 228.907 895.614 233.92C900.2 238.827 902.494 246.347 902.494 256.48V293.92ZM999.67 282.88C999.67 291.52 999.99 297.813 1000.63 301.76C1001.38 305.6 1002.82 308.907 1004.95 311.68C1001.96 313.387 998.763 314.72 995.35 315.68C992.043 316.64 988.897 317.12 985.91 317.12C983.457 317.12 981.483 316.213 979.99 314.4C978.603 312.587 977.537 309.76 976.79 305.92C974.337 309.76 971.19 312.693 967.35 314.72C963.51 316.64 959.137 317.6 954.23 317.6C942.923 317.6 934.123 313.653 927.83 305.76C921.643 297.76 918.55 286.613 918.55 272.32C918.55 263.04 920.203 254.933 923.51 248C926.817 241.067 931.51 235.733 937.59 232C943.67 228.267 950.763 226.4 958.87 226.4C965.27 226.4 970.977 227.787 975.99 230.56V189.44H999.67V282.88ZM958.23 302.24C965.697 302.24 971.617 298.133 975.99 289.92V246.24C972.257 243.04 967.403 241.44 961.43 241.44C955.457 241.44 950.817 244.16 947.51 249.6C944.203 254.933 942.55 262.507 942.55 272.32C942.55 282.56 943.83 290.133 946.39 295.04C948.95 299.84 952.897 302.24 958.23 302.24ZM1048.58 317.6C1038.12 317.6 1029.86 316 1023.78 312.8C1017.8 309.6 1014.82 305.493 1014.82 300.48C1014.82 297.493 1015.83 294.987 1017.86 292.96C1019.99 290.827 1023.03 289.653 1026.98 289.44C1029.22 293.707 1032.1 296.907 1035.62 299.04C1039.24 301.173 1043.78 302.24 1049.22 302.24C1058.6 302.24 1063.3 298.72 1063.3 291.68C1063.3 288.8 1061.96 286.613 1059.3 285.12C1056.63 283.627 1052.26 281.867 1046.18 279.84C1039.99 277.813 1034.87 275.84 1030.82 273.92C1026.87 272 1023.46 269.227 1020.58 265.6C1017.7 261.867 1016.26 257.067 1016.26 251.2C1016.26 246.187 1017.8 241.813 1020.9 238.08C1024.1 234.24 1028.26 231.36 1033.38 229.44C1038.6 227.413 1044.26 226.4 1050.34 226.4C1058.12 226.4 1064.95 227.893 1070.82 230.88C1076.68 233.867 1081.27 237.867 1084.58 242.88C1083.19 245.547 1081.27 247.893 1078.82 249.92C1076.47 251.84 1074.34 252.8 1072.42 252.8C1071.35 252.8 1070.44 252.64 1069.7 252.32C1068.95 251.893 1068.2 251.253 1067.46 250.4C1062.66 244.427 1057.16 241.44 1050.98 241.44C1046.92 241.44 1043.78 242.24 1041.54 243.84C1039.4 245.333 1038.34 247.627 1038.34 250.72C1038.34 254.027 1039.78 256.533 1042.66 258.24C1045.64 259.947 1050.28 261.707 1056.58 263.52C1062.55 265.12 1067.46 266.827 1071.3 268.64C1075.24 270.347 1078.55 272.96 1081.22 276.48C1083.99 279.893 1085.38 284.427 1085.38 290.08C1085.38 298.933 1082.18 305.76 1075.78 310.56C1069.48 315.253 1060.42 317.6 1048.58 317.6Z"/>
</mask>
<path d="M534.524 299.04V316H468.604V204H493.244V299.04H534.524ZM624.875 266.24C624.875 267.733 624.608 271.093 624.075 276.32H567.435C567.968 284.427 569.888 290.72 573.195 295.2C576.608 299.68 581.035 301.92 586.475 301.92C588.928 301.92 590.955 301.6 592.555 300.96C594.262 300.32 595.968 299.2 597.675 297.6C599.488 295.893 601.835 293.173 604.715 289.44C605.248 288.587 606.368 288.16 608.075 288.16C609.888 288.16 612.075 288.8 614.635 290.08C617.302 291.253 620.128 292.96 623.115 295.2C616.182 310.133 603.968 317.6 586.475 317.6C573.035 317.6 562.475 313.547 554.795 305.44C547.115 297.227 543.275 286.027 543.275 271.84C543.275 262.56 544.982 254.507 548.395 247.68C551.915 240.853 556.875 235.627 563.275 232C569.782 228.267 577.462 226.4 586.315 226.4C598.582 226.4 608.075 229.867 614.795 236.8C621.515 243.733 624.875 253.547 624.875 266.24ZM600.875 262.88C600.875 248.587 595.862 241.44 585.835 241.44C580.715 241.44 576.608 243.253 573.515 246.88C570.422 250.507 568.502 255.84 567.755 262.88H600.875ZM679.128 296C691.821 296 701.581 298.187 708.408 302.56C715.234 306.827 718.648 312.96 718.648 320.96C718.648 329.6 714.808 336.427 707.128 341.44C699.448 346.56 689.048 349.12 675.928 349.12C662.701 349.12 652.461 346.987 645.208 342.72C638.061 338.56 634.488 332.587 634.488 324.8C634.488 314.773 641.634 309.067 655.928 307.68V307.2C651.554 306.347 648.141 304.853 645.688 302.72C643.341 300.48 642.168 297.813 642.168 294.72C642.168 291.84 643.341 289.333 645.688 287.2C648.034 284.96 651.181 283.307 655.128 282.24C649.901 279.573 645.741 276.107 642.648 271.84C639.554 267.573 638.008 262.88 638.008 257.76C638.008 247.733 641.421 240 648.248 234.56C655.181 229.12 664.888 226.4 677.368 226.4C683.661 226.4 689.421 227.467 694.648 229.6C697.101 226.293 699.981 223.627 703.288 221.6C706.701 219.573 709.901 218.56 712.888 218.56C716.728 218.56 719.394 219.947 720.888 222.72C722.488 225.387 723.288 230.08 723.288 236.8C716.034 236.8 710.754 237.653 707.448 239.36C711.074 244.16 712.888 249.653 712.888 255.84C712.888 265.653 709.528 273.227 702.808 278.56C696.194 283.893 686.701 286.56 674.328 286.56C669.314 286.56 665.901 286.933 664.088 287.68C662.274 288.32 661.368 289.6 661.368 291.52C661.368 292.907 661.794 293.92 662.648 294.56C663.501 295.093 665.101 295.467 667.448 295.68C669.901 295.893 673.794 296 679.128 296ZM675.288 241.44C666.434 241.44 662.008 246.453 662.008 256.48C662.008 261.493 663.074 265.227 665.208 267.68C667.341 270.027 670.701 271.2 675.288 271.2C679.874 271.2 683.234 270.027 685.368 267.68C687.608 265.227 688.728 261.493 688.728 256.48C688.728 251.36 687.608 247.573 685.368 245.12C683.234 242.667 679.874 241.44 675.288 241.44ZM675.928 333.76C682.434 333.76 687.394 332.747 690.808 330.72C694.328 328.693 696.088 325.76 696.088 321.92C696.088 314.453 689.581 310.72 676.568 310.72C664.621 310.72 658.648 314.453 658.648 321.92C658.648 326.08 659.981 329.067 662.648 330.88C665.421 332.8 669.848 333.76 675.928 333.76ZM811.281 266.24C811.281 267.733 811.015 271.093 810.481 276.32H753.841C754.375 284.427 756.295 290.72 759.601 295.2C763.015 299.68 767.441 301.92 772.881 301.92C775.335 301.92 777.361 301.6 778.961 300.96C780.668 300.32 782.375 299.2 784.081 297.6C785.895 295.893 788.241 293.173 791.121 289.44C791.655 288.587 792.775 288.16 794.481 288.16C796.295 288.16 798.481 288.8 801.041 290.08C803.708 291.253 806.535 292.96 809.521 295.2C802.588 310.133 790.375 317.6 772.881 317.6C759.441 317.6 748.881 313.547 741.201 305.44C733.521 297.227 729.681 286.027 729.681 271.84C729.681 262.56 731.388 254.507 734.801 247.68C738.321 240.853 743.281 235.627 749.681 232C756.188 228.267 763.868 226.4 772.721 226.4C784.988 226.4 794.481 229.867 801.201 236.8C807.921 243.733 811.281 253.547 811.281 266.24ZM787.281 262.88C787.281 248.587 782.268 241.44 772.241 241.44C767.121 241.44 763.015 243.253 759.921 246.88C756.828 250.507 754.908 255.84 754.161 262.88H787.281ZM902.494 293.92C902.494 299.253 902.707 303.253 903.134 305.92C903.56 308.587 904.36 311.04 905.534 313.28C899.24 315.627 892.734 316.8 886.014 316.8C883.347 316.8 881.48 315.52 880.414 312.96C879.347 310.4 878.814 305.973 878.814 299.68V257.92C878.814 252.373 877.96 248.533 876.254 246.4C874.654 244.16 871.774 243.04 867.614 243.04C862.067 243.04 855.987 245.76 849.374 251.2V316H825.694V256.8C825.694 249.653 825.534 244.16 825.214 240.32C825 236.48 824.52 233.387 823.774 231.04C831.667 228.587 838.12 227.36 843.134 227.36C845.374 227.36 846.974 228.107 847.934 229.6C848.894 230.987 849.374 233.333 849.374 236.64V238.56C854.814 233.973 859.4 230.827 863.134 229.12C866.974 227.307 870.974 226.4 875.134 226.4C884.307 226.4 891.134 228.907 895.614 233.92C900.2 238.827 902.494 246.347 902.494 256.48V293.92ZM999.67 282.88C999.67 291.52 999.99 297.813 1000.63 301.76C1001.38 305.6 1002.82 308.907 1004.95 311.68C1001.96 313.387 998.763 314.72 995.35 315.68C992.043 316.64 988.897 317.12 985.91 317.12C983.457 317.12 981.483 316.213 979.99 314.4C978.603 312.587 977.537 309.76 976.79 305.92C974.337 309.76 971.19 312.693 967.35 314.72C963.51 316.64 959.137 317.6 954.23 317.6C942.923 317.6 934.123 313.653 927.83 305.76C921.643 297.76 918.55 286.613 918.55 272.32C918.55 263.04 920.203 254.933 923.51 248C926.817 241.067 931.51 235.733 937.59 232C943.67 228.267 950.763 226.4 958.87 226.4C965.27 226.4 970.977 227.787 975.99 230.56V189.44H999.67V282.88ZM958.23 302.24C965.697 302.24 971.617 298.133 975.99 289.92V246.24C972.257 243.04 967.403 241.44 961.43 241.44C955.457 241.44 950.817 244.16 947.51 249.6C944.203 254.933 942.55 262.507 942.55 272.32C942.55 282.56 943.83 290.133 946.39 295.04C948.95 299.84 952.897 302.24 958.23 302.24ZM1048.58 317.6C1038.12 317.6 1029.86 316 1023.78 312.8C1017.8 309.6 1014.82 305.493 1014.82 300.48C1014.82 297.493 1015.83 294.987 1017.86 292.96C1019.99 290.827 1023.03 289.653 1026.98 289.44C1029.22 293.707 1032.1 296.907 1035.62 299.04C1039.24 301.173 1043.78 302.24 1049.22 302.24C1058.6 302.24 1063.3 298.72 1063.3 291.68C1063.3 288.8 1061.96 286.613 1059.3 285.12C1056.63 283.627 1052.26 281.867 1046.18 279.84C1039.99 277.813 1034.87 275.84 1030.82 273.92C1026.87 272 1023.46 269.227 1020.58 265.6C1017.7 261.867 1016.26 257.067 1016.26 251.2C1016.26 246.187 1017.8 241.813 1020.9 238.08C1024.1 234.24 1028.26 231.36 1033.38 229.44C1038.6 227.413 1044.26 226.4 1050.34 226.4C1058.12 226.4 1064.95 227.893 1070.82 230.88C1076.68 233.867 1081.27 237.867 1084.58 242.88C1083.19 245.547 1081.27 247.893 1078.82 249.92C1076.47 251.84 1074.34 252.8 1072.42 252.8C1071.35 252.8 1070.44 252.64 1069.7 252.32C1068.95 251.893 1068.2 251.253 1067.46 250.4C1062.66 244.427 1057.16 241.44 1050.98 241.44C1046.92 241.44 1043.78 242.24 1041.54 243.84C1039.4 245.333 1038.34 247.627 1038.34 250.72C1038.34 254.027 1039.78 256.533 1042.66 258.24C1045.64 259.947 1050.28 261.707 1056.58 263.52C1062.55 265.12 1067.46 266.827 1071.3 268.64C1075.24 270.347 1078.55 272.96 1081.22 276.48C1083.99 279.893 1085.38 284.427 1085.38 290.08C1085.38 298.933 1082.18 305.76 1075.78 310.56C1069.48 315.253 1060.42 317.6 1048.58 317.6Z" fill="white"/>
<path d="M534.524 299.04H539.524C539.524 296.279 537.285 294.04 534.524 294.04V299.04ZM534.524 316V321C537.285 321 539.524 318.761 539.524 316H534.524ZM468.604 316H463.604C463.604 318.761 465.842 321 468.604 321V316ZM468.604 204V199C465.842 199 463.604 201.239 463.604 204H468.604ZM493.244 204H498.244C498.244 201.239 496.005 199 493.244 199V204ZM493.244 299.04H488.244C488.244 301.801 490.482 304.04 493.244 304.04V299.04ZM534.524 299.04H529.524V316H534.524H539.524V299.04H534.524ZM534.524 316V311H468.604V316V321H534.524V316ZM468.604 316H473.604V204H468.604H463.604V316H468.604ZM468.604 204V209H493.244V204V199H468.604V204ZM493.244 204H488.244V299.04H493.244H498.244V204H493.244ZM493.244 299.04V304.04H534.524V299.04V294.04H493.244V299.04ZM624.075 276.32V281.32C626.64 281.32 628.789 279.379 629.049 276.828L624.075 276.32ZM567.435 276.32V271.32C566.052 271.32 564.731 271.893 563.785 272.902C562.84 273.912 562.355 275.268 562.446 276.648L567.435 276.32ZM573.195 295.2L569.172 298.169C569.187 298.19 569.202 298.21 569.218 298.23L573.195 295.2ZM592.555 300.96L590.799 296.278C590.765 296.291 590.732 296.304 590.698 296.318L592.555 300.96ZM597.675 297.6L601.095 301.248L601.102 301.241L597.675 297.6ZM604.715 289.44L608.674 292.494C608.774 292.364 608.868 292.229 608.955 292.09L604.715 289.44ZM614.635 290.08L612.399 294.552C612.472 294.589 612.546 294.624 612.621 294.657L614.635 290.08ZM623.115 295.2L627.65 297.306C628.645 295.163 628.005 292.617 626.115 291.2L623.115 295.2ZM554.795 305.44L551.143 308.855C551.15 308.863 551.158 308.871 551.165 308.879L554.795 305.44ZM548.395 247.68L543.951 245.389C543.941 245.407 543.932 245.425 543.923 245.444L548.395 247.68ZM563.275 232L565.74 236.35C565.748 236.346 565.756 236.341 565.763 236.337L563.275 232ZM614.795 236.8L618.385 233.32L618.385 233.32L614.795 236.8ZM600.875 262.88V267.88C603.636 267.88 605.875 265.641 605.875 262.88H600.875ZM573.515 246.88L577.319 250.125L577.319 250.125L573.515 246.88ZM567.755 262.88L562.783 262.353C562.633 263.763 563.089 265.17 564.038 266.224C564.986 267.278 566.337 267.88 567.755 267.88V262.88ZM624.875 266.24H619.875C619.875 267.427 619.642 270.514 619.101 275.812L624.075 276.32L629.049 276.828C629.575 271.673 629.875 268.039 629.875 266.24H624.875ZM624.075 276.32V271.32H567.435V276.32V281.32H624.075V276.32ZM567.435 276.32L562.446 276.648C563.015 285.296 565.093 292.643 569.172 298.169L573.195 295.2L577.218 292.231C574.684 288.797 572.922 283.558 572.424 275.992L567.435 276.32ZM573.195 295.2L569.218 298.23C573.538 303.9 579.411 306.92 586.475 306.92V301.92V296.92C582.659 296.92 579.679 295.46 577.172 292.17L573.195 295.2ZM586.475 301.92V306.92C589.316 306.92 592.028 306.556 594.412 305.602L592.555 300.96L590.698 296.318C589.882 296.644 588.541 296.92 586.475 296.92V301.92ZM592.555 300.96L594.311 305.642C596.783 304.715 599.038 303.176 601.095 301.248L597.675 297.6L594.255 293.952C592.899 295.224 591.741 295.925 590.799 296.278L592.555 300.96ZM597.675 297.6L601.102 301.241C603.209 299.258 605.748 296.287 608.674 292.494L604.715 289.44L600.756 286.386C597.922 290.06 595.768 292.529 594.248 293.959L597.675 297.6ZM604.715 289.44L608.955 292.09C608.763 292.397 608.528 292.646 608.286 292.834C608.051 293.015 607.849 293.109 607.735 293.152C607.541 293.227 607.593 293.16 608.075 293.16V288.16V283.16C605.863 283.16 602.421 283.677 600.475 286.79L604.715 289.44ZM608.075 288.16V293.16C608.79 293.16 610.173 293.439 612.399 294.552L614.635 290.08L616.871 285.608C613.977 284.161 610.986 283.16 608.075 283.16V288.16ZM614.635 290.08L612.621 294.657C614.857 295.64 617.353 297.129 620.115 299.2L623.115 295.2L626.115 291.2C622.904 288.791 619.747 286.867 616.649 285.503L614.635 290.08ZM623.115 295.2L618.58 293.094C615.464 299.805 611.291 304.589 606.147 307.734C600.983 310.891 594.506 312.6 586.475 312.6V317.6V322.6C595.938 322.6 604.313 320.576 611.363 316.266C618.432 311.944 623.832 305.529 627.65 297.306L623.115 295.2ZM586.475 317.6V312.6C574.107 312.6 564.972 308.912 558.425 302.001L554.795 305.44L551.165 308.879C559.978 318.182 571.963 322.6 586.475 322.6V317.6ZM554.795 305.44L558.447 302.025C551.844 294.963 548.275 285.104 548.275 271.84H543.275H538.275C538.275 286.949 542.386 299.49 551.143 308.855L554.795 305.44ZM543.275 271.84H548.275C548.275 263.171 549.868 255.914 552.867 249.916L548.395 247.68L543.923 245.444C540.095 253.099 538.275 261.949 538.275 271.84H543.275ZM548.395 247.68L552.839 249.971C555.934 243.969 560.224 239.476 565.74 236.35L563.275 232L560.81 227.65C553.526 231.778 547.896 237.738 543.951 245.389L548.395 247.68ZM563.275 232L565.763 236.337C571.386 233.111 578.177 231.4 586.315 231.4V226.4V221.4C576.747 221.4 568.177 223.423 560.787 227.663L563.275 232ZM586.315 226.4V231.4C597.615 231.4 605.665 234.564 611.205 240.28L614.795 236.8L618.385 233.32C610.485 225.169 599.549 221.4 586.315 221.4V226.4ZM614.795 236.8L611.205 240.28C616.764 246.016 619.875 254.423 619.875 266.24H624.875H629.875C629.875 252.67 626.266 241.451 618.385 233.32L614.795 236.8ZM600.875 262.88H605.875C605.875 255.302 604.574 248.726 601.208 243.929C597.616 238.808 592.199 236.44 585.835 236.44V241.44V246.44C589.498 246.44 591.601 247.646 593.022 249.671C594.67 252.021 595.875 256.165 595.875 262.88H600.875ZM585.835 241.44V236.44C579.374 236.44 573.831 238.804 569.711 243.635L573.515 246.88L577.319 250.125C579.385 247.702 582.056 246.44 585.835 246.44V241.44ZM573.515 246.88L569.711 243.635C565.716 248.318 563.587 254.769 562.783 262.353L567.755 262.88L572.727 263.407C573.416 256.911 575.127 252.695 577.319 250.125L573.515 246.88ZM567.755 262.88V267.88H600.875V262.88V257.88H567.755V262.88ZM708.408 302.56L705.71 306.77C705.726 306.78 705.742 306.79 705.758 306.8L708.408 302.56ZM707.128 341.44L704.394 337.253C704.381 337.262 704.367 337.271 704.354 337.28L707.128 341.44ZM645.208 342.72L647.743 338.41C647.736 338.406 647.729 338.403 647.723 338.399L645.208 342.72ZM655.928 307.68L656.41 312.657C658.973 312.408 660.928 310.254 660.928 307.68H655.928ZM655.928 307.2H660.928C660.928 304.808 659.233 302.751 656.885 302.293L655.928 307.2ZM645.688 302.72L642.235 306.337C642.291 306.39 642.348 306.442 642.407 306.493L645.688 302.72ZM645.688 287.2L649.051 290.9C649.081 290.872 649.111 290.845 649.14 290.817L645.688 287.2ZM655.128 282.24L656.432 287.067C658.428 286.527 659.886 284.815 660.101 282.759C660.315 280.702 659.242 278.726 657.4 277.786L655.128 282.24ZM642.648 271.84L646.696 268.905L646.696 268.905L642.648 271.84ZM648.248 234.56L645.161 230.626C645.151 230.634 645.141 230.642 645.131 230.65L648.248 234.56ZM694.648 229.6L692.758 234.229C694.872 235.092 697.302 234.413 698.663 232.579L694.648 229.6ZM703.288 221.6L700.735 217.301C700.715 217.313 700.695 217.325 700.675 217.337L703.288 221.6ZM720.888 222.72L716.485 225.09C716.522 225.159 716.56 225.226 716.6 225.292L720.888 222.72ZM723.288 236.8V241.8C726.049 241.8 728.288 239.561 728.288 236.8H723.288ZM707.448 239.36L705.154 234.917C703.844 235.593 702.899 236.813 702.572 238.251C702.245 239.689 702.569 241.198 703.458 242.374L707.448 239.36ZM702.808 278.56L699.699 274.644C699.689 274.652 699.679 274.66 699.669 274.668L702.808 278.56ZM664.088 287.68L665.752 292.395C665.832 292.366 665.912 292.336 665.991 292.303L664.088 287.68ZM662.648 294.56L659.648 298.56C659.761 298.645 659.877 298.725 659.998 298.8L662.648 294.56ZM667.448 295.68L666.995 300.659C667.001 300.66 667.008 300.661 667.014 300.661L667.448 295.68ZM665.208 267.68L661.434 270.961C661.459 270.989 661.483 271.016 661.508 271.043L665.208 267.68ZM685.368 267.68L681.675 264.309L681.668 264.317L685.368 267.68ZM685.368 245.12L681.594 248.401C681.621 248.431 681.648 248.462 681.675 248.491L685.368 245.12ZM690.808 330.72L688.313 326.387C688.293 326.398 688.274 326.409 688.255 326.421L690.808 330.72ZM662.648 330.88L665.494 326.769C665.482 326.761 665.471 326.753 665.459 326.745L662.648 330.88ZM679.128 296V301C691.362 301 700.024 303.127 705.71 306.77L708.408 302.56L711.105 298.35C703.138 293.246 692.28 291 679.128 291V296ZM708.408 302.56L705.758 306.8C711.134 310.16 713.648 314.697 713.648 320.96H718.648H723.648C723.648 311.223 719.335 303.493 711.057 298.32L708.408 302.56ZM718.648 320.96H713.648C713.648 327.79 710.764 333.095 704.394 337.253L707.128 341.44L709.861 345.627C718.851 339.758 723.648 331.41 723.648 320.96H718.648ZM707.128 341.44L704.354 337.28C697.774 341.667 688.459 344.12 675.928 344.12V349.12V354.12C689.636 354.12 701.121 351.453 709.901 345.6L707.128 341.44ZM675.928 349.12V344.12C663.128 344.12 653.908 342.037 647.743 338.41L645.208 342.72L642.672 347.03C651.014 351.937 662.273 354.12 675.928 354.12V349.12ZM645.208 342.72L647.723 338.399C641.998 335.066 639.488 330.676 639.488 324.8H634.488H629.488C629.488 334.498 634.124 342.054 642.692 347.041L645.208 342.72ZM634.488 324.8H639.488C639.488 321.14 640.707 318.712 642.967 316.907C645.466 314.912 649.722 313.305 656.41 312.657L655.928 307.68L655.445 302.703C647.839 303.441 641.375 305.382 636.728 309.093C631.841 312.995 629.488 318.433 629.488 324.8H634.488ZM655.928 307.68H660.928V307.2H655.928H650.928V307.68H655.928ZM655.928 307.2L656.885 302.293C653.067 301.548 650.559 300.331 648.968 298.947L645.688 302.72L642.407 306.493C645.722 309.376 650.041 311.146 654.97 312.107L655.928 307.2ZM645.688 302.72L649.14 299.103C647.728 297.755 647.168 296.374 647.168 294.72H642.168H637.168C637.168 299.253 638.954 303.205 642.235 306.337L645.688 302.72ZM642.168 294.72H647.168C647.168 293.4 647.629 292.192 649.051 290.9L645.688 287.2L642.324 283.5C639.053 286.474 637.168 290.28 637.168 294.72H642.168ZM645.688 287.2L649.14 290.817C650.746 289.284 653.086 287.971 656.432 287.067L655.128 282.24L653.823 277.413C649.276 278.642 645.323 280.636 642.235 283.583L645.688 287.2ZM655.128 282.24L657.4 277.786C652.796 275.437 649.275 272.463 646.696 268.905L642.648 271.84L638.599 274.775C642.207 279.751 647.006 283.709 652.855 286.694L655.128 282.24ZM642.648 271.84L646.696 268.905C644.202 265.465 643.008 261.793 643.008 257.76H638.008H633.008C633.008 263.967 634.907 269.681 638.599 274.775L642.648 271.84ZM638.008 257.76H643.008C643.008 249.001 645.913 242.813 651.364 238.47L648.248 234.56L645.131 230.65C636.928 237.187 633.008 246.466 633.008 257.76H638.008ZM648.248 234.56L651.334 238.494C657.086 233.981 665.552 231.4 677.368 231.4V226.4V221.4C664.223 221.4 653.276 224.259 645.161 230.626L648.248 234.56ZM677.368 226.4V231.4C683.087 231.4 688.196 232.367 692.758 234.229L694.648 229.6L696.537 224.971C690.645 222.566 684.234 221.4 677.368 221.4V226.4ZM694.648 229.6L698.663 232.579C700.759 229.754 703.172 227.535 705.9 225.863L703.288 221.6L700.675 217.337C696.79 219.718 693.443 222.832 690.632 226.621L694.648 229.6ZM703.288 221.6L705.84 225.899C708.728 224.185 711.048 223.56 712.888 223.56V218.56V213.56C708.753 213.56 704.674 214.962 700.735 217.301L703.288 221.6ZM712.888 218.56V223.56C715.368 223.56 716.07 224.319 716.485 225.09L720.888 222.72L725.29 220.35C722.718 215.574 718.087 213.56 712.888 213.56V218.56ZM720.888 222.72L716.6 225.292C717.44 226.692 718.288 230.158 718.288 236.8H723.288H728.288C728.288 230.002 727.535 224.082 725.175 220.148L720.888 222.72ZM723.288 236.8V231.8C715.857 231.8 709.569 232.638 705.154 234.917L707.448 239.36L709.741 243.803C711.94 242.668 716.212 241.8 723.288 241.8V236.8ZM707.448 239.36L703.458 242.374C706.409 246.28 707.888 250.708 707.888 255.84H712.888H717.888C717.888 248.599 715.739 242.04 711.437 236.346L707.448 239.36ZM712.888 255.84H707.888C707.888 264.375 705.043 270.403 699.699 274.644L702.808 278.56L705.916 282.476C714.012 276.051 717.888 266.931 717.888 255.84H712.888ZM702.808 278.56L699.669 274.668C694.271 279.021 686.064 281.56 674.328 281.56V286.56V291.56C687.337 291.56 698.117 288.766 705.946 282.452L702.808 278.56ZM674.328 286.56V281.56C669.375 281.56 665.025 281.887 662.184 283.057L664.088 287.68L665.991 292.303C666.777 291.98 669.253 291.56 674.328 291.56V286.56ZM664.088 287.68L662.423 282.965C660.766 283.55 659.142 284.572 657.967 286.23C656.793 287.889 656.368 289.76 656.368 291.52H661.368H666.368C666.368 291.431 666.378 291.457 666.348 291.563C666.316 291.677 666.249 291.839 666.128 292.01C666.006 292.181 665.876 292.298 665.781 292.365C665.693 292.427 665.666 292.425 665.752 292.395L664.088 287.68ZM661.368 291.52H656.368C656.368 293.964 657.172 296.704 659.648 298.56L662.648 294.56L665.648 290.56C665.952 290.789 666.176 291.096 666.296 291.38C666.399 291.625 666.368 291.715 666.368 291.52H661.368ZM662.648 294.56L659.998 298.8C661.958 300.025 664.648 300.446 666.995 300.659L667.448 295.68L667.9 290.701C666.867 290.607 666.125 290.488 665.624 290.371C665.065 290.241 665.056 290.169 665.297 290.32L662.648 294.56ZM667.448 295.68L667.014 300.661C669.698 300.895 673.776 301 679.128 301V296V291C673.813 291 670.103 290.892 667.881 290.699L667.448 295.68ZM675.288 241.44V236.44C669.918 236.44 665.024 237.989 661.579 241.891C658.239 245.673 657.008 250.838 657.008 256.48H662.008H667.008C667.008 252.095 667.989 249.74 669.076 248.509C670.057 247.398 671.804 246.44 675.288 246.44V241.44ZM662.008 256.48H657.008C657.008 262.073 658.178 267.216 661.434 270.961L665.208 267.68L668.981 264.399C667.97 263.237 667.008 260.914 667.008 256.48H662.008ZM665.208 267.68L661.508 271.043C664.947 274.827 669.932 276.2 675.288 276.2V271.2V266.2C671.47 266.2 669.734 265.227 668.907 264.317L665.208 267.68ZM675.288 271.2V276.2C680.643 276.2 685.628 274.827 689.067 271.043L685.368 267.68L681.668 264.317C680.841 265.227 679.105 266.2 675.288 266.2V271.2ZM685.368 267.68L689.06 271.051C692.481 267.304 693.728 262.123 693.728 256.48H688.728H683.728C683.728 260.864 682.734 263.149 681.675 264.309L685.368 267.68ZM688.728 256.48H693.728C693.728 250.764 692.496 245.512 689.06 241.749L685.368 245.12L681.675 248.491C682.719 249.635 683.728 251.956 683.728 256.48H688.728ZM685.368 245.12L689.141 241.839C685.717 237.902 680.706 236.44 675.288 236.44V241.44V246.44C679.042 246.44 680.751 247.431 681.594 248.401L685.368 245.12ZM675.928 333.76V338.76C682.819 338.76 688.828 337.71 693.36 335.019L690.808 330.72L688.255 326.421C685.961 327.783 682.05 328.76 675.928 328.76V333.76ZM690.808 330.72L693.302 335.053C698.262 332.197 701.088 327.672 701.088 321.92H696.088H691.088C691.088 323.848 690.393 325.189 688.313 326.387L690.808 330.72ZM696.088 321.92H701.088C701.088 316.385 698.494 311.936 693.696 309.183C689.315 306.67 683.388 305.72 676.568 305.72V310.72V315.72C682.76 315.72 686.593 316.637 688.719 317.857C690.428 318.837 691.088 319.988 691.088 321.92H696.088ZM676.568 310.72V305.72C670.235 305.72 664.637 306.68 660.478 309.28C655.926 312.125 653.648 316.588 653.648 321.92H658.648H663.648C663.648 319.786 664.356 318.649 665.777 317.76C667.591 316.626 670.953 315.72 676.568 315.72V310.72ZM658.648 321.92H653.648C653.648 327.199 655.41 332.005 659.836 335.015L662.648 330.88L665.459 326.745C664.552 326.129 663.648 324.961 663.648 321.92H658.648ZM662.648 330.88L659.801 334.991C663.849 337.793 669.542 338.76 675.928 338.76V333.76V328.76C670.153 328.76 666.992 327.807 665.494 326.769L662.648 330.88ZM810.481 276.32V281.32C813.046 281.32 815.195 279.379 815.455 276.828L810.481 276.32ZM753.841 276.32V271.32C752.458 271.32 751.137 271.893 750.192 272.902C749.246 273.912 748.761 275.268 748.852 276.648L753.841 276.32ZM759.601 295.2L755.578 298.169C755.593 298.19 755.609 298.21 755.624 298.23L759.601 295.2ZM778.961 300.96L777.206 296.278C777.172 296.291 777.138 296.304 777.104 296.318L778.961 300.96ZM784.081 297.6L787.501 301.248L787.508 301.241L784.081 297.6ZM791.121 289.44L795.08 292.494C795.18 292.364 795.274 292.229 795.361 292.09L791.121 289.44ZM801.041 290.08L798.805 294.552C798.878 294.589 798.953 294.624 799.028 294.657L801.041 290.08ZM809.521 295.2L814.056 297.306C815.051 295.163 814.411 292.617 812.521 291.2L809.521 295.2ZM741.201 305.44L737.549 308.855C737.557 308.863 737.564 308.871 737.571 308.879L741.201 305.44ZM734.801 247.68L730.357 245.389C730.348 245.407 730.338 245.425 730.329 245.444L734.801 247.68ZM749.681 232L752.146 236.35C752.154 236.346 752.162 236.341 752.17 236.337L749.681 232ZM801.201 236.8L804.792 233.32L804.792 233.32L801.201 236.8ZM787.281 262.88V267.88C790.043 267.88 792.281 265.641 792.281 262.88H787.281ZM759.921 246.88L763.725 250.125L763.725 250.125L759.921 246.88ZM754.161 262.88L749.189 262.353C749.04 263.763 749.496 265.17 750.444 266.224C751.392 267.278 752.743 267.88 754.161 267.88V262.88ZM811.281 266.24H806.281C806.281 267.427 806.048 270.514 805.507 275.812L810.481 276.32L815.455 276.828C815.981 271.673 816.281 268.039 816.281 266.24H811.281ZM810.481 276.32V271.32H753.841V276.32V281.32H810.481V276.32ZM753.841 276.32L748.852 276.648C749.421 285.296 751.499 292.643 755.578 298.169L759.601 295.2L763.624 292.231C761.09 288.797 759.328 283.558 758.83 275.992L753.841 276.32ZM759.601 295.2L755.624 298.23C759.944 303.9 765.817 306.92 772.881 306.92V301.92V296.92C769.065 296.92 766.085 295.46 763.578 292.17L759.601 295.2ZM772.881 301.92V306.92C775.722 306.92 778.434 306.556 780.818 305.602L778.961 300.96L777.104 296.318C776.288 296.644 774.947 296.92 772.881 296.92V301.92ZM778.961 300.96L780.717 305.642C783.189 304.715 785.444 303.176 787.501 301.248L784.081 297.6L780.662 293.952C779.305 295.224 778.147 295.925 777.206 296.278L778.961 300.96ZM784.081 297.6L787.508 301.241C789.615 299.258 792.154 296.287 795.08 292.494L791.121 289.44L787.162 286.386C784.328 290.06 782.174 292.529 780.654 293.959L784.081 297.6ZM791.121 289.44L795.361 292.09C795.169 292.397 794.934 292.646 794.692 292.834C794.457 293.015 794.255 293.109 794.141 293.152C793.947 293.227 793.999 293.16 794.481 293.16V288.16V283.16C792.269 283.16 788.827 283.677 786.881 286.79L791.121 289.44ZM794.481 288.16V293.16C795.197 293.16 796.579 293.439 798.805 294.552L801.041 290.08L803.277 285.608C800.383 284.161 797.392 283.16 794.481 283.16V288.16ZM801.041 290.08L799.028 294.657C801.263 295.64 803.759 297.129 806.521 299.2L809.521 295.2L812.521 291.2C809.31 288.791 806.153 286.867 803.055 285.503L801.041 290.08ZM809.521 295.2L804.986 293.094C801.871 299.805 797.697 304.589 792.553 307.734C787.39 310.891 780.912 312.6 772.881 312.6V317.6V322.6C782.344 322.6 790.72 320.576 797.769 316.266C804.838 311.944 810.238 305.529 814.056 297.306L809.521 295.2ZM772.881 317.6V312.6C760.513 312.6 751.378 308.912 744.831 302.001L741.201 305.44L737.571 308.879C746.385 318.182 758.37 322.6 772.881 322.6V317.6ZM741.201 305.44L744.853 302.025C738.25 294.963 734.681 285.104 734.681 271.84H729.681H724.681C724.681 286.949 728.793 299.49 737.549 308.855L741.201 305.44ZM729.681 271.84H734.681C734.681 263.171 736.274 255.914 739.273 249.916L734.801 247.68L730.329 245.444C726.502 253.099 724.681 261.949 724.681 271.84H729.681ZM734.801 247.68L739.245 249.971C742.34 243.969 746.631 239.476 752.146 236.35L749.681 232L747.216 227.65C739.932 231.778 734.302 237.738 730.357 245.389L734.801 247.68ZM749.681 232L752.17 236.337C757.793 233.111 764.583 231.4 772.721 231.4V226.4V221.4C763.153 221.4 754.583 223.423 747.193 227.663L749.681 232ZM772.721 226.4V231.4C784.021 231.4 792.071 234.564 797.611 240.28L801.201 236.8L804.792 233.32C796.891 225.169 785.955 221.4 772.721 221.4V226.4ZM801.201 236.8L797.611 240.28C803.17 246.016 806.281 254.423 806.281 266.24H811.281H816.281C816.281 252.67 812.672 241.451 804.792 233.32L801.201 236.8ZM787.281 262.88H792.281C792.281 255.302 790.98 248.726 787.615 243.929C784.022 238.808 778.605 236.44 772.241 236.44V241.44V246.44C775.904 246.44 778.007 247.646 779.428 249.671C781.076 252.021 782.281 256.165 782.281 262.88H787.281ZM772.241 241.44V236.44C765.781 236.44 760.238 238.804 756.117 243.635L759.921 246.88L763.725 250.125C765.792 247.702 768.462 246.44 772.241 246.44V241.44ZM759.921 246.88L756.117 243.635C752.123 248.318 749.993 254.769 749.189 262.353L754.161 262.88L759.133 263.407C759.822 256.911 761.533 252.695 763.725 250.125L759.921 246.88ZM754.161 262.88V267.88H787.281V262.88V257.88H754.161V262.88ZM903.134 305.92L898.197 306.71L898.197 306.71L903.134 305.92ZM905.534 313.28L907.281 317.965C908.625 317.463 909.69 316.408 910.203 315.068C910.716 313.728 910.629 312.231 909.963 310.96L905.534 313.28ZM880.414 312.96L875.798 314.883L875.798 314.883L880.414 312.96ZM876.254 246.4L872.185 249.306C872.238 249.38 872.293 249.453 872.349 249.523L876.254 246.4ZM849.374 251.2L846.197 247.339C845.043 248.288 844.374 249.705 844.374 251.2H849.374ZM849.374 316V321C852.135 321 854.374 318.761 854.374 316H849.374ZM825.694 316H820.694C820.694 318.761 822.932 321 825.694 321V316ZM825.214 240.32L820.221 240.597C820.224 240.643 820.227 240.689 820.231 240.735L825.214 240.32ZM823.774 231.04L822.29 226.265C821.018 226.661 819.956 227.547 819.34 228.728C818.725 229.909 818.605 231.287 819.009 232.556L823.774 231.04ZM847.934 229.6L843.728 232.304C843.759 232.352 843.79 232.399 843.823 232.446L847.934 229.6ZM849.374 238.56H844.374C844.374 240.505 845.502 242.274 847.266 243.094C849.03 243.914 851.11 243.637 852.597 242.383L849.374 238.56ZM863.134 229.12L865.213 233.667C865.231 233.659 865.25 233.65 865.269 233.641L863.134 229.12ZM895.614 233.92L891.885 237.252C891.91 237.28 891.936 237.307 891.961 237.334L895.614 233.92ZM902.494 293.92H897.494C897.494 299.315 897.705 303.638 898.197 306.71L903.134 305.92L908.071 305.13C907.709 302.868 907.494 299.191 907.494 293.92H902.494ZM903.134 305.92L898.197 306.71C898.703 309.874 899.664 312.849 901.105 315.6L905.534 313.28L909.963 310.96C909.057 309.231 908.418 307.299 908.071 305.13L903.134 305.92ZM905.534 313.28L903.787 308.595C898.053 310.733 892.138 311.8 886.014 311.8V316.8V321.8C893.33 321.8 900.428 320.52 907.281 317.965L905.534 313.28ZM886.014 316.8V311.8C885.747 311.8 885.593 311.768 885.522 311.748C885.487 311.738 885.467 311.729 885.458 311.725C885.449 311.721 885.445 311.719 885.441 311.716C885.441 311.716 885.404 311.692 885.337 311.605C885.266 311.512 885.154 311.337 885.029 311.037L880.414 312.96L875.798 314.883C876.619 316.852 877.894 318.666 879.786 319.964C881.692 321.27 883.855 321.8 886.014 321.8V316.8ZM880.414 312.96L885.029 311.037C884.38 309.478 883.814 305.942 883.814 299.68H878.814H873.814C873.814 306.005 874.315 311.322 875.798 314.883L880.414 312.96ZM878.814 299.68H883.814V257.92H878.814H873.814V299.68H878.814ZM878.814 257.92H883.814C883.814 252.216 883.008 246.839 880.158 243.277L876.254 246.4L872.349 249.523C872.913 250.228 873.814 252.53 873.814 257.92H878.814ZM876.254 246.4L880.322 243.494C877.376 239.369 872.528 238.04 867.614 238.04V243.04V248.04C871.019 248.04 871.932 248.951 872.185 249.306L876.254 246.4ZM867.614 243.04V238.04C860.425 238.04 853.243 241.543 846.197 247.339L849.374 251.2L852.55 255.061C858.731 249.977 863.709 248.04 867.614 248.04V243.04ZM849.374 251.2H844.374V316H849.374H854.374V251.2H849.374ZM849.374 316V311H825.694V316V321H849.374V316ZM825.694 316H830.694V256.8H825.694H820.694V316H825.694ZM825.694 256.8H830.694C830.694 249.61 830.534 243.953 830.196 239.905L825.214 240.32L820.231 240.735C820.534 244.367 820.694 249.696 820.694 256.8H825.694ZM825.214 240.32L830.206 240.043C829.981 235.989 829.463 232.431 828.538 229.524L823.774 231.04L819.009 232.556C819.578 234.342 820.02 236.971 820.221 240.597L825.214 240.32ZM823.774 231.04L825.258 235.815C832.939 233.427 838.844 232.36 843.134 232.36V227.36V222.36C837.397 222.36 830.395 223.746 822.29 226.265L823.774 231.04ZM843.134 227.36V232.36C843.713 232.36 843.914 232.458 843.899 232.451C843.889 232.446 843.849 232.425 843.801 232.383C843.779 232.364 843.761 232.345 843.747 232.329C843.734 232.313 843.728 232.304 843.728 232.304L847.934 229.6L852.14 226.896C850.016 223.592 846.568 222.36 843.134 222.36V227.36ZM847.934 229.6L843.823 232.446C843.793 232.403 843.958 232.633 844.115 233.402C844.268 234.148 844.374 235.206 844.374 236.64H849.374H854.374C854.374 233.135 853.92 229.462 852.045 226.754L847.934 229.6ZM849.374 236.64H844.374V238.56H849.374H854.374V236.64H849.374ZM849.374 238.56L852.597 242.383C857.904 237.908 862.086 235.097 865.213 233.667L863.134 229.12L861.055 224.573C856.715 226.557 851.724 230.039 846.151 234.737L849.374 238.56ZM863.134 229.12L865.269 233.641C868.456 232.136 871.728 231.4 875.134 231.4V226.4V221.4C870.22 221.4 865.492 222.477 860.999 224.599L863.134 229.12ZM875.134 226.4V231.4C883.425 231.4 888.663 233.646 891.885 237.252L895.614 233.92L899.342 230.588C893.604 224.168 885.19 221.4 875.134 221.4V226.4ZM895.614 233.92L891.961 237.334C895.331 240.94 897.494 246.985 897.494 256.48H902.494H907.494C907.494 245.708 905.07 236.714 899.266 230.506L895.614 233.92ZM902.494 256.48H897.494V293.92H902.494H907.494V256.48H902.494ZM1000.63 301.76L995.694 302.56C995.703 302.612 995.712 302.663 995.722 302.714L1000.63 301.76ZM1004.95 311.68L1007.43 316.021C1008.69 315.304 1009.57 314.08 1009.85 312.663C1010.14 311.247 1009.79 309.777 1008.91 308.631L1004.95 311.68ZM995.35 315.68L993.996 310.867C993.983 310.871 993.969 310.874 993.956 310.878L995.35 315.68ZM979.99 314.4L976.018 317.437C976.055 317.485 976.092 317.532 976.13 317.579L979.99 314.4ZM976.79 305.92L981.698 304.966C981.308 302.958 979.734 301.391 977.726 301.008C975.717 300.626 973.677 301.505 972.577 303.228L976.79 305.92ZM967.35 314.72L969.586 319.192C969.619 319.176 969.651 319.159 969.684 319.142L967.35 314.72ZM927.83 305.76L923.875 308.819C923.89 308.838 923.905 308.858 923.921 308.877L927.83 305.76ZM937.59 232L934.974 227.739L934.974 227.739L937.59 232ZM975.99 230.56L973.57 234.935C975.118 235.792 977.005 235.766 978.53 234.867C980.054 233.968 980.99 232.33 980.99 230.56H975.99ZM975.99 189.44V184.44C973.229 184.44 970.99 186.679 970.99 189.44H975.99ZM999.67 189.44H1004.67C1004.67 186.679 1002.43 184.44 999.67 184.44V189.44ZM975.99 289.92L980.403 292.27C980.789 291.547 980.99 290.74 980.99 289.92H975.99ZM975.99 246.24H980.99C980.99 244.78 980.352 243.394 979.244 242.444L975.99 246.24ZM947.51 249.6L951.76 252.235C951.767 252.222 951.775 252.21 951.783 252.197L947.51 249.6ZM946.39 295.04L941.957 297.353C941.964 297.366 941.971 297.38 941.978 297.393L946.39 295.04ZM999.67 282.88H994.67C994.67 291.554 994.986 298.19 995.694 302.56L1000.63 301.76L1005.57 300.96C1004.99 297.437 1004.67 291.486 1004.67 282.88H999.67ZM1000.63 301.76L995.722 302.714C996.599 307.225 998.327 311.271 1000.99 314.729L1004.95 311.68L1008.91 308.631C1007.31 306.543 1006.15 303.975 1005.54 300.806L1000.63 301.76ZM1004.95 311.68L1002.47 307.339C999.848 308.836 997.028 310.014 993.996 310.867L995.35 315.68L996.704 320.493C1000.5 319.426 1004.08 317.937 1007.43 316.021L1004.95 311.68ZM995.35 315.68L993.956 310.878C991.035 311.726 988.359 312.12 985.91 312.12V317.12V322.12C989.434 322.12 993.052 321.554 996.744 320.482L995.35 315.68ZM985.91 317.12V312.12C984.874 312.12 984.346 311.824 983.85 311.221L979.99 314.4L976.13 317.579C978.621 320.603 982.039 322.12 985.91 322.12V317.12ZM979.99 314.4L983.962 311.363C983.266 310.453 982.389 308.517 981.698 304.966L976.79 305.92L971.882 306.874C972.685 311.003 973.94 314.72 976.018 317.437L979.99 314.4ZM976.79 305.92L972.577 303.228C970.565 306.376 968.052 308.696 965.016 310.298L967.35 314.72L969.684 319.142C974.328 316.691 978.108 313.144 981.003 308.612L976.79 305.92ZM967.35 314.72L965.114 310.248C962.061 311.774 958.472 312.6 954.23 312.6V317.6V322.6C959.801 322.6 964.959 321.506 969.586 319.192L967.35 314.72ZM954.23 317.6V312.6C944.238 312.6 936.962 309.193 931.739 302.643L927.83 305.76L923.921 308.877C931.285 318.113 941.609 322.6 954.23 322.6V317.6ZM927.83 305.76L931.785 302.701C926.506 295.875 923.55 285.953 923.55 272.32H918.55H913.55C913.55 287.274 916.781 299.645 923.875 308.819L927.83 305.76ZM918.55 272.32H923.55C923.55 263.632 925.097 256.288 928.023 250.152L923.51 248L918.997 245.848C915.31 253.579 913.55 262.448 913.55 272.32H918.55ZM923.51 248L928.023 250.152C930.947 244.02 935.012 239.45 940.206 236.261L937.59 232L934.974 227.739C928.008 232.016 922.686 238.113 918.997 245.848L923.51 248ZM937.59 232L940.206 236.261C945.396 233.074 951.558 231.4 958.87 231.4V226.4V221.4C949.968 221.4 941.944 223.459 934.974 227.739L937.59 232ZM958.87 226.4V231.4C964.524 231.4 969.381 232.618 973.57 234.935L975.99 230.56L978.41 226.185C972.572 222.955 966.016 221.4 958.87 221.4V226.4ZM975.99 230.56H980.99V189.44H975.99H970.99V230.56H975.99ZM975.99 189.44V194.44H999.67V189.44V184.44H975.99V189.44ZM999.67 189.44H994.67V282.88H999.67H1004.67V189.44H999.67ZM958.23 302.24V307.24C968.027 307.24 975.415 301.639 980.403 292.27L975.99 289.92L971.577 287.57C967.819 294.628 963.366 297.24 958.23 297.24V302.24ZM975.99 289.92H980.99V246.24H975.99H970.99V289.92H975.99ZM975.99 246.24L979.244 242.444C974.42 238.309 968.33 236.44 961.43 236.44V241.44V246.44C966.477 246.44 970.093 247.771 972.736 250.036L975.99 246.24ZM961.43 241.44V236.44C953.576 236.44 947.379 240.19 943.237 247.003L947.51 249.6L951.783 252.197C954.255 248.13 957.337 246.44 961.43 246.44V241.44ZM947.51 249.6L943.26 246.965C939.26 253.418 937.55 262.057 937.55 272.32H942.55H947.55C947.55 262.957 949.147 256.449 951.76 252.235L947.51 249.6ZM942.55 272.32H937.55C937.55 282.79 938.827 291.354 941.957 297.353L946.39 295.04L950.823 292.727C948.833 288.912 947.55 282.33 947.55 272.32H942.55ZM946.39 295.04L941.978 297.393C943.604 300.442 945.807 302.97 948.672 304.712C951.543 306.458 954.791 307.24 958.23 307.24V302.24V297.24C956.335 297.24 954.944 296.822 953.868 296.168C952.787 295.51 951.736 294.438 950.802 292.687L946.39 295.04ZM1023.78 312.8L1021.41 317.207C1021.42 317.213 1021.44 317.219 1021.45 317.225L1023.78 312.8ZM1017.86 292.96L1014.32 289.424L1014.32 289.424L1017.86 292.96ZM1026.98 289.44L1031.4 287.116C1030.49 285.384 1028.66 284.342 1026.71 284.447L1026.98 289.44ZM1035.62 299.04L1033.02 303.316C1033.04 303.327 1033.06 303.339 1033.08 303.35L1035.62 299.04ZM1059.3 285.12L1056.85 289.483L1056.85 289.483L1059.3 285.12ZM1046.18 279.84L1047.76 275.097C1047.75 275.094 1047.74 275.091 1047.73 275.088L1046.18 279.84ZM1030.82 273.92L1028.63 278.416C1028.64 278.424 1028.66 278.431 1028.67 278.439L1030.82 273.92ZM1020.58 265.6L1016.62 268.654C1016.63 268.673 1016.64 268.691 1016.66 268.709L1020.58 265.6ZM1020.9 238.08L1017.05 234.879L1017.04 234.89L1020.9 238.08ZM1033.38 229.44L1035.13 234.122C1035.15 234.115 1035.17 234.109 1035.18 234.102L1033.38 229.44ZM1070.82 230.88L1068.55 235.336L1068.55 235.336L1070.82 230.88ZM1084.58 242.88L1089.01 245.187C1089.85 243.577 1089.75 241.641 1088.75 240.127L1084.58 242.88ZM1078.82 249.92L1081.98 253.79C1081.99 253.785 1081.99 253.78 1082 253.775L1078.82 249.92ZM1069.7 252.32L1067.21 256.661C1067.38 256.756 1067.55 256.841 1067.73 256.916L1069.7 252.32ZM1067.46 250.4L1063.56 253.532C1063.6 253.586 1063.65 253.64 1063.69 253.693L1067.46 250.4ZM1041.54 243.84L1044.4 247.936C1044.42 247.927 1044.43 247.918 1044.44 247.909L1041.54 243.84ZM1042.66 258.24L1040.11 262.541C1040.13 262.555 1040.15 262.568 1040.17 262.581L1042.66 258.24ZM1056.58 263.52L1055.19 268.325C1055.22 268.333 1055.25 268.342 1055.28 268.35L1056.58 263.52ZM1071.3 268.64L1069.16 273.161C1069.21 273.185 1069.26 273.207 1069.31 273.229L1071.3 268.64ZM1081.22 276.48L1077.23 279.499C1077.26 279.544 1077.3 279.589 1077.33 279.633L1081.22 276.48ZM1075.78 310.56L1078.76 314.568L1078.78 314.56L1075.78 310.56ZM1048.58 317.6V312.6C1038.55 312.6 1031.19 311.051 1026.1 308.375L1023.78 312.8L1021.45 317.225C1028.52 320.949 1037.7 322.6 1048.58 322.6V317.6ZM1023.78 312.8L1026.14 308.393C1021.13 305.711 1019.82 303.009 1019.82 300.48H1014.82H1009.82C1009.82 307.978 1014.47 313.489 1021.41 317.207L1023.78 312.8ZM1014.82 300.48H1019.82C1019.82 298.757 1020.34 297.541 1021.39 296.496L1017.86 292.96L1014.32 289.424C1011.31 292.432 1009.82 296.229 1009.82 300.48H1014.82ZM1017.86 292.96L1021.39 296.496C1022.41 295.476 1024.14 294.601 1027.24 294.433L1026.98 289.44L1026.71 284.447C1021.92 284.706 1017.57 286.178 1014.32 289.424L1017.86 292.96ZM1026.98 289.44L1022.55 291.764C1025.14 296.697 1028.6 300.636 1033.02 303.316L1035.62 299.04L1038.21 294.764C1035.59 293.178 1033.29 290.716 1031.4 287.116L1026.98 289.44ZM1035.62 299.04L1033.08 303.35C1037.67 306.049 1043.14 307.24 1049.22 307.24V302.24V297.24C1044.41 297.24 1040.81 296.298 1038.15 294.73L1035.62 299.04ZM1049.22 302.24V307.24C1054.39 307.24 1059.18 306.295 1062.78 303.6C1066.64 300.702 1068.3 296.42 1068.3 291.68H1063.3H1058.3C1058.3 293.98 1057.6 294.978 1056.78 295.6C1055.68 296.425 1053.43 297.24 1049.22 297.24V302.24ZM1063.3 291.68H1068.3C1068.3 286.858 1065.86 283.068 1061.74 280.757L1059.3 285.12L1056.85 289.483C1058.06 290.158 1058.3 290.742 1058.3 291.68H1063.3ZM1059.3 285.12L1061.74 280.757C1058.64 279.02 1053.88 277.139 1047.76 275.097L1046.18 279.84L1044.59 284.583C1050.63 286.594 1054.62 288.233 1056.85 289.483L1059.3 285.12ZM1046.18 279.84L1047.73 275.088C1041.66 273.101 1036.76 271.201 1032.96 269.401L1030.82 273.92L1028.67 278.439C1032.98 280.479 1038.31 282.526 1044.62 284.592L1046.18 279.84ZM1030.82 273.92L1033 269.424C1029.77 267.849 1026.93 265.565 1024.49 262.491L1020.58 265.6L1016.66 268.709C1019.98 272.889 1023.97 276.151 1028.63 278.416L1030.82 273.92ZM1020.58 265.6L1024.53 262.546C1022.48 259.883 1021.26 256.237 1021.26 251.2H1016.26H1011.26C1011.26 257.896 1012.91 263.85 1016.62 268.654L1020.58 265.6ZM1016.26 251.2H1021.26C1021.26 247.308 1022.42 244.074 1024.75 241.27L1020.9 238.08L1017.04 234.89C1013.18 239.553 1011.26 245.065 1011.26 251.2H1016.26ZM1020.9 238.08L1024.74 241.281C1027.33 238.168 1030.74 235.767 1035.13 234.122L1033.38 229.44L1031.62 224.758C1025.77 226.953 1020.86 230.312 1017.05 234.879L1020.9 238.08ZM1033.38 229.44L1035.18 234.102C1039.79 232.317 1044.82 231.4 1050.34 231.4V226.4V221.4C1043.69 221.4 1037.42 222.51 1031.57 224.778L1033.38 229.44ZM1050.34 226.4V231.4C1057.48 231.4 1063.5 232.767 1068.55 235.336L1070.82 230.88L1073.08 226.424C1066.4 223.02 1058.77 221.4 1050.34 221.4V226.4ZM1070.82 230.88L1068.55 235.336C1073.72 237.968 1077.62 241.411 1080.4 245.633L1084.58 242.88L1088.75 240.127C1084.92 234.322 1079.65 229.765 1073.08 226.424L1070.82 230.88ZM1084.58 242.88L1080.14 240.573C1079.08 242.611 1077.6 244.44 1075.63 246.065L1078.82 249.92L1082 253.775C1084.94 251.347 1087.3 248.483 1089.01 245.187L1084.58 242.88ZM1078.82 249.92L1075.65 246.05C1073.71 247.638 1072.68 247.8 1072.42 247.8V252.8V257.8C1075.99 257.8 1079.23 256.042 1081.98 253.79L1078.82 249.92ZM1072.42 252.8V247.8C1071.82 247.8 1071.63 247.708 1071.66 247.724L1069.7 252.32L1067.73 256.916C1069.26 257.572 1070.87 257.8 1072.42 257.8V252.8ZM1069.7 252.32L1072.18 247.979C1072.04 247.9 1071.71 247.668 1071.22 247.107L1067.46 250.4L1063.69 253.693C1064.7 254.839 1065.86 255.887 1067.21 256.661L1069.7 252.32ZM1067.46 250.4L1071.35 247.268C1065.85 240.423 1059.03 236.44 1050.98 236.44V241.44V246.44C1055.29 246.44 1059.46 248.43 1063.56 253.532L1067.46 250.4ZM1050.98 241.44V236.44C1046.35 236.44 1042.03 237.341 1038.63 239.771L1041.54 243.84L1044.44 247.909C1045.52 247.139 1047.5 246.44 1050.98 246.44V241.44ZM1041.54 243.84L1038.67 239.744C1034.93 242.357 1033.34 246.345 1033.34 250.72H1038.34H1043.34C1043.34 248.908 1043.87 248.31 1044.4 247.936L1041.54 243.84ZM1038.34 250.72H1033.34C1033.34 255.82 1035.73 259.948 1040.11 262.541L1042.66 258.24L1045.2 253.939C1043.82 253.118 1043.34 252.234 1043.34 250.72H1038.34ZM1042.66 258.24L1040.17 262.581C1043.69 264.59 1048.79 266.481 1055.19 268.325L1056.58 263.52L1057.96 258.715C1051.77 256.932 1047.59 255.303 1045.14 253.899L1042.66 258.24ZM1056.58 263.52L1055.28 268.35C1061.08 269.904 1065.68 271.519 1069.16 273.161L1071.3 268.64L1073.43 264.119C1069.23 262.134 1064.01 260.336 1057.87 258.69L1056.58 263.52ZM1071.3 268.64L1069.31 273.229C1072.44 274.584 1075.07 276.647 1077.23 279.499L1081.22 276.48L1085.2 273.461C1082.03 269.273 1078.04 266.109 1073.28 264.051L1071.3 268.64ZM1081.22 276.48L1077.33 279.633C1079.2 281.927 1080.38 285.242 1080.38 290.08H1085.38H1090.38C1090.38 283.611 1088.78 277.86 1085.1 273.327L1081.22 276.48ZM1085.38 290.08H1080.38C1080.38 297.553 1077.77 302.815 1072.78 306.56L1075.78 310.56L1078.78 314.56C1086.58 308.705 1090.38 300.314 1090.38 290.08H1085.38ZM1075.78 310.56L1072.79 306.552C1067.7 310.348 1059.86 312.6 1048.58 312.6V317.6V322.6C1060.97 322.6 1071.27 320.159 1078.76 314.568L1075.78 310.56Z" fill="black" mask="url(#path-12-outside-2_15_51)"/>
<path d="M164 113.5C164 140.811 199.553 169.5 199.553 169.5C199.553 169.5 170.53 127.016 184.437 105.286L184.656 104.944C195.69 87.7044 209.984 65.3718 207.5 46C205.811 32.8294 184.437 19.5 184.437 19.5C184.437 19.5 199.553 39.5 191.751 56.6237C181.101 80 164 86.189 164 113.5Z" fill="#DCCEB4"/>
<path d="M204.5 118.5C197.662 149.5 225.5 179 225.5 179C225.5 179 216 152.5 228.5 126.5C238.356 106 267.413 84 258.5 43C253.283 19 224 0 224 0C224 0 245.447 35 234 57C220.621 82.7139 211.338 87.5 204.5 118.5Z" fill="#DCCEB4"/>
<path d="M249 131C245.529 160.5 262.5 175 262.5 175C262.5 175 256 138 274.5 122.5C293 107 308 84.5 296.5 48C292.336 34.7851 265.5 17.5 265.5 17.5C265.5 17.5 289.247 56.1985 280.5 72.5C269.5 93 252.47 101.5 249 131Z" fill="#DCCEB4"/>
</svg>
