<svg width="423" height="609" viewBox="0 0 423 609" fill="none" xmlns="http://www.w3.org/2000/svg">
<path d="M256.286 324.03C333.057 364.645 332.475 474.806 255.28 514.476C183.586 551.319 98.3117 498.922 98.7377 418.289C99.164 337.656 184.986 286.309 256.286 324.03Z" fill="white" stroke="#0055FF" stroke-width="17"/>
<path d="M198.472 318.214L197.404 520.367C145.187 520.046 103.08 477.456 103.356 425.238L103.425 412.181C103.701 359.964 146.255 317.893 198.472 318.214Z" fill="#0055FF"/>
<path d="M254.267 95.4105C331.883 134.464 333.64 244.611 257.304 285.835C186.408 324.121 100.039 273.461 98.7526 192.837C97.4669 112.212 182.182 59.1399 254.267 95.4105Z" fill="white" stroke="#0055FF" stroke-width="17"/>
<path d="M196.34 90.7637L199.563 292.897C147.351 293.633 104.349 251.904 103.516 199.693L103.308 186.633C102.476 134.422 144.127 91.4998 196.34 90.7637Z" fill="#0055FF"/>
</svg>
