<svg width="2242" height="642" viewBox="0 0 2242 642" fill="none" xmlns="http://www.w3.org/2000/svg">
<rect y="6.10352e-05" width="2242" height="642" rx="50" fill="black"/>
<path d="M1050.29 357.03C1127.06 397.645 1126.47 507.806 1049.28 547.476C977.586 584.319 892.312 531.922 892.738 451.289C893.164 370.656 978.986 319.309 1050.29 357.03Z" fill="white" stroke="#0055FF" stroke-width="17"/>
<path d="M992.472 351.214L991.404 553.367V553.367C939.187 553.046 897.08 510.456 897.356 458.238L897.425 445.181C897.701 392.964 940.255 350.893 992.472 351.214V351.214Z" fill="#0055FF"/>
<path d="M1048.27 128.41C1125.88 167.464 1127.64 277.611 1051.3 318.835C980.408 357.121 894.039 306.461 892.753 225.837C891.467 145.212 976.182 92.1399 1048.27 128.41Z" fill="white" stroke="#0055FF" stroke-width="17"/>
<path d="M990.34 123.764L993.563 325.897V325.897C941.351 326.633 898.349 284.904 897.516 232.693L897.308 219.633C896.476 167.422 938.127 124.5 990.34 123.764V123.764Z" fill="#0055FF"/>
<path d="M434.2 183.4L317.8 534.4C316.2 539.6 312.8 544 307.6 547.6C302.8 551.2 297.6 553 292 553H267.4C261.8 553 256.6 551.2 251.8 547.6C247.4 544 244.2 539.6 242.2 534.4L125.8 183.4C122.6 174.6 123.8 166.4 129.4 158.8C134.6 151.2 142 147.4 151.6 147.4H169C182.2 147.4 191 153.6 195.4 166L276.4 413.2C278.8 416 281 416 283 413.2C291.4 387.2 300 360.6 308.8 333.4C318 305.8 326.6 280 334.6 256C342.6 231.6 349.2 211.4 354.4 195.4L364 166C366 160.4 369.4 156 374.2 152.8C379.4 149.2 384.8 147.4 390.4 147.4H407.8C417.4 147.4 424.8 151.2 430 158.8C435.6 166 437 174.2 434.2 183.4ZM721.309 517C723.709 526.2 722.309 534.6 717.109 542.2C711.909 549.4 704.509 553 694.909 553H677.509C671.909 553 666.509 551.2 661.309 547.6C656.509 544 653.109 539.6 651.109 534.4L628.309 465.4C626.709 460.2 623.309 457.6 618.109 457.6H515.509C510.309 457.6 506.909 460.2 505.309 465.4L482.509 534.4C480.509 539.6 477.109 544 472.309 547.6C467.509 551.2 462.109 553 456.109 553H438.709C429.109 553 421.709 549.4 416.509 542.2C410.909 534.2 409.709 525.8 412.909 517L529.309 166C531.309 160.4 534.509 156 538.909 152.8C543.709 149.2 548.909 147.4 554.509 147.4H579.109C584.709 147.4 589.909 149.2 594.709 152.8C599.509 156 602.709 160.4 604.309 166L721.309 517ZM600.109 379L570.109 287.2C568.109 284.4 565.909 284.4 563.509 287.2L533.509 379C532.709 381 532.909 382.8 534.109 384.4C535.309 386 536.909 386.8 538.909 386.8H594.709C596.709 386.8 598.309 386 599.509 384.4C600.709 382.8 600.909 381 600.109 379ZM1459.93 473.8C1459.93 488.2 1456.33 501.4 1449.13 513.4C1441.93 525.4 1432.33 535 1420.33 542.2C1408.33 549.4 1395.13 553 1380.73 553H1265.53C1251.13 553 1237.73 549.4 1225.33 542.2C1213.33 535 1203.73 525.4 1196.53 513.4C1189.33 501.4 1185.73 488.2 1185.73 473.8V227.2C1185.73 212.4 1189.33 199 1196.53 187C1203.73 175 1213.33 165.4 1225.33 158.2C1237.73 151 1251.13 147.4 1265.53 147.4H1380.73C1395.13 147.4 1408.33 151 1420.33 158.2C1432.33 165.4 1441.93 175 1449.13 187C1456.33 199 1459.93 212.4 1459.93 227.2V473.8ZM1388.53 473.8V227.2C1388.53 221.6 1385.93 218.8 1380.73 218.8H1265.53C1263.53 218.8 1261.53 219.6 1259.53 221.2C1257.93 222.8 1257.13 224.8 1257.13 227.2V473.8C1257.13 475.8 1257.93 477.8 1259.53 479.8C1261.53 481.4 1263.53 482.2 1265.53 482.2H1380.73C1382.73 482.2 1384.53 481.4 1386.13 479.8C1387.73 477.8 1388.53 475.8 1388.53 473.8ZM1783.37 473.8C1783.37 488.2 1779.77 501.4 1772.57 513.4C1765.37 525.4 1755.77 535 1743.77 542.2C1731.77 549.4 1718.57 553 1704.17 553H1588.97C1574.57 553 1561.17 549.4 1548.77 542.2C1536.77 535 1527.17 525.4 1519.97 513.4C1512.77 501.4 1509.17 488.2 1509.17 473.8V227.2C1509.17 212.4 1512.77 199 1519.97 187C1527.17 175 1536.77 165.4 1548.77 158.2C1561.17 151 1574.57 147.4 1588.97 147.4H1704.17C1718.57 147.4 1731.77 151 1743.77 158.2C1755.77 165.4 1765.37 175 1772.57 187C1779.77 199 1783.37 212.4 1783.37 227.2V473.8ZM1711.97 473.8V227.2C1711.97 221.6 1709.37 218.8 1704.17 218.8H1588.97C1586.97 218.8 1584.97 219.6 1582.97 221.2C1581.37 222.8 1580.57 224.8 1580.57 227.2V473.8C1580.57 475.8 1581.37 477.8 1582.97 479.8C1584.97 481.4 1586.97 482.2 1588.97 482.2H1704.17C1706.17 482.2 1707.97 481.4 1709.57 479.8C1711.17 477.8 1711.97 475.8 1711.97 473.8ZM2090.01 163.6C2092.01 168.4 2092.61 173.6 2091.81 179.2C2091.41 184.4 2089.21 189.2 2085.21 193.6L1947.81 344.8C1944.21 348.4 1944.21 352.2 1947.81 356.2L2085.21 506.8C2089.21 510.8 2091.41 515.6 2091.81 521.2C2092.61 526.4 2092.01 531.4 2090.01 536.2C2088.01 541.4 2084.61 545.6 2079.81 548.8C2075.41 551.6 2070.61 553 2065.41 553H2042.61C2035.41 553 2028.81 550 2022.81 544L1909.41 419.2C1908.61 418 1907.41 417.8 1905.81 418.6C1904.61 419 1904.01 419.8 1904.01 421V525.4C1904.01 533 1901.21 539.6 1895.61 545.2C1890.41 550.4 1884.01 553 1876.41 553H1859.61C1852.01 553 1845.61 550.4 1840.41 545.2C1835.21 539.6 1832.61 533 1832.61 525.4V175C1832.61 167 1835.21 160.4 1840.41 155.2C1845.61 150 1852.01 147.4 1859.61 147.4H1876.41C1884.01 147.4 1890.41 150 1895.61 155.2C1901.21 160.4 1904.01 167 1904.01 175V278.8C1904.01 280.4 1904.61 281.4 1905.81 281.8C1907.41 282.2 1908.61 282 1909.41 281.2L2022.81 156.4C2028.81 150.4 2035.61 147.4 2043.21 147.4H2065.41C2077.01 147.4 2085.21 152.8 2090.01 163.6Z" fill="white"/>
</svg>
