<svg width="2041" height="609" viewBox="0 0 2041 609" fill="none" xmlns="http://www.w3.org/2000/svg">
<path d="M950.286 324.03C1027.06 364.645 1026.47 474.806 949.28 514.476C877.586 551.319 792.312 498.922 792.738 418.289C793.164 337.656 878.986 286.309 950.286 324.03Z" fill="white" stroke="#0055FF" stroke-width="17"/>
<path d="M892.472 318.214L891.404 520.367C839.187 520.046 797.08 477.456 797.356 425.238L797.425 412.181C797.701 359.964 840.255 317.893 892.472 318.214Z" fill="#0055FF"/>
<path d="M948.267 95.4105C1025.88 134.464 1027.64 244.611 951.304 285.835C880.408 324.121 794.039 273.461 792.753 192.837C791.467 112.212 876.182 59.1399 948.267 95.4105Z" fill="white" stroke="#0055FF" stroke-width="17"/>
<path d="M890.34 90.7637L893.563 292.897C841.351 293.633 798.349 251.904 797.516 199.693L797.308 186.633C796.476 134.422 838.127 91.4998 890.34 90.7637Z" fill="#0055FF"/>
<path d="M334.2 150.4L217.8 501.4C216.2 506.6 212.8 511 207.6 514.6C202.8 518.2 197.6 520 192 520H167.4C161.8 520 156.6 518.2 151.8 514.6C147.4 511 144.2 506.6 142.2 501.4L25.8 150.4C22.6 141.6 23.8 133.4 29.4 125.8C34.6 118.2 42 114.4 51.6 114.4H69C82.2 114.4 91 120.6 95.4 133L176.4 380.2C178.8 383 181 383 183 380.2C191.4 354.2 200 327.6 208.8 300.4C218 272.8 226.6 247 234.6 223C242.6 198.6 249.2 178.4 254.4 162.4L264 133C266 127.4 269.4 123 274.2 119.8C279.4 116.2 284.8 114.4 290.4 114.4H307.8C317.4 114.4 324.8 118.2 330 125.8C335.6 133 337 141.2 334.2 150.4ZM621.309 484C623.709 493.2 622.309 501.6 617.109 509.2C611.909 516.4 604.509 520 594.909 520H577.509C571.909 520 566.509 518.2 561.309 514.6C556.509 511 553.109 506.6 551.109 501.4L528.309 432.4C526.709 427.2 523.309 424.6 518.109 424.6H415.509C410.309 424.6 406.909 427.2 405.309 432.4L382.509 501.4C380.509 506.6 377.109 511 372.309 514.6C367.509 518.2 362.109 520 356.109 520H338.709C329.109 520 321.709 516.4 316.509 509.2C310.909 501.2 309.709 492.8 312.909 484L429.309 133C431.309 127.4 434.509 123 438.909 119.8C443.709 116.2 448.909 114.4 454.509 114.4H479.109C484.709 114.4 489.909 116.2 494.709 119.8C499.509 123 502.709 127.4 504.309 133L621.309 484ZM500.109 346L470.109 254.2C468.109 251.4 465.909 251.4 463.509 254.2L433.509 346C432.709 348 432.909 349.8 434.109 351.4C435.309 353 436.909 353.8 438.909 353.8H494.709C496.709 353.8 498.309 353 499.509 351.4C500.709 349.8 500.909 348 500.109 346ZM1359.93 440.8C1359.93 455.2 1356.33 468.4 1349.13 480.4C1341.93 492.4 1332.33 502 1320.33 509.2C1308.33 516.4 1295.13 520 1280.73 520H1165.53C1151.13 520 1137.73 516.4 1125.33 509.2C1113.33 502 1103.73 492.4 1096.53 480.4C1089.33 468.4 1085.73 455.2 1085.73 440.8V194.2C1085.73 179.4 1089.33 166 1096.53 154C1103.73 142 1113.33 132.4 1125.33 125.2C1137.73 118 1151.13 114.4 1165.53 114.4H1280.73C1295.13 114.4 1308.33 118 1320.33 125.2C1332.33 132.4 1341.93 142 1349.13 154C1356.33 166 1359.93 179.4 1359.93 194.2V440.8ZM1288.53 440.8V194.2C1288.53 188.6 1285.93 185.8 1280.73 185.8H1165.53C1163.53 185.8 1161.53 186.6 1159.53 188.2C1157.93 189.8 1157.13 191.8 1157.13 194.2V440.8C1157.13 442.8 1157.93 444.8 1159.53 446.8C1161.53 448.4 1163.53 449.2 1165.53 449.2H1280.73C1282.73 449.2 1284.53 448.4 1286.13 446.8C1287.73 444.8 1288.53 442.8 1288.53 440.8ZM1683.37 440.8C1683.37 455.2 1679.77 468.4 1672.57 480.4C1665.37 492.4 1655.77 502 1643.77 509.2C1631.77 516.4 1618.57 520 1604.17 520H1488.97C1474.57 520 1461.17 516.4 1448.77 509.2C1436.77 502 1427.17 492.4 1419.97 480.4C1412.77 468.4 1409.17 455.2 1409.17 440.8V194.2C1409.17 179.4 1412.77 166 1419.97 154C1427.17 142 1436.77 132.4 1448.77 125.2C1461.17 118 1474.57 114.4 1488.97 114.4H1604.17C1618.57 114.4 1631.77 118 1643.77 125.2C1655.77 132.4 1665.37 142 1672.57 154C1679.77 166 1683.37 179.4 1683.37 194.2V440.8ZM1611.97 440.8V194.2C1611.97 188.6 1609.37 185.8 1604.17 185.8H1488.97C1486.97 185.8 1484.97 186.6 1482.97 188.2C1481.37 189.8 1480.57 191.8 1480.57 194.2V440.8C1480.57 442.8 1481.37 444.8 1482.97 446.8C1484.97 448.4 1486.97 449.2 1488.97 449.2H1604.17C1606.17 449.2 1607.97 448.4 1609.57 446.8C1611.17 444.8 1611.97 442.8 1611.97 440.8ZM1990.01 130.6C1992.01 135.4 1992.61 140.6 1991.81 146.2C1991.41 151.4 1989.21 156.2 1985.21 160.6L1847.81 311.8C1844.21 315.4 1844.21 319.2 1847.81 323.2L1985.21 473.8C1989.21 477.8 1991.41 482.6 1991.81 488.2C1992.61 493.4 1992.01 498.4 1990.01 503.2C1988.01 508.4 1984.61 512.6 1979.81 515.8C1975.41 518.6 1970.61 520 1965.41 520H1942.61C1935.41 520 1928.81 517 1922.81 511L1809.41 386.2C1808.61 385 1807.41 384.8 1805.81 385.6C1804.61 386 1804.01 386.8 1804.01 388V492.4C1804.01 500 1801.21 506.6 1795.61 512.2C1790.41 517.4 1784.01 520 1776.41 520H1759.61C1752.01 520 1745.61 517.4 1740.41 512.2C1735.21 506.6 1732.61 500 1732.61 492.4V142C1732.61 134 1735.21 127.4 1740.41 122.2C1745.61 117 1752.01 114.4 1759.61 114.4H1776.41C1784.01 114.4 1790.41 117 1795.61 122.2C1801.21 127.4 1804.01 134 1804.01 142V245.8C1804.01 247.4 1804.61 248.4 1805.81 248.8C1807.41 249.2 1808.61 249 1809.41 248.2L1922.81 123.4C1928.81 117.4 1935.61 114.4 1943.21 114.4H1965.41C1977.01 114.4 1985.21 119.8 1990.01 130.6Z" fill="black"/>
</svg>
